<svg xmlns="http://www.w3.org/2000/svg" width="68" height="68" fill="none" viewBox="0 0 68 68">
  <path fill="#009490" fill-rule="evenodd" d="M63.35 14.547c.717-.027 1.387.473 1.387 1.235 0 .612-.612 1.14-1.033 1.46-2.335 1.816-5.02 3.218-7.743 4.34-7.952 3.29-16.787 4.427-25.29 5.52l-1.193.154a233.465 233.465 0 0 1-15.646 1.519c-1.939.123-3.882-.91-5.508-1.884-1.676-.992-3.286-2.312-4.206-4.057-.766-1.465-.864-3.676.49-4.838 1.022-.881 2.603-.835 3.866-.745 1.018.078 2.022.259 3.027.44.462.083.925.166 1.389.24 1.052.162 2.108.348 3.162.533 1.304.229 2.607.458 3.901.644 13.686 1.974 28.336 1.035 41.317-3.902.16-.061.322-.13.484-.198.515-.216 1.04-.437 1.596-.46ZM42.885 36.622a9.87 9.87 0 0 1 .714 2.426c.377 2.201.155 4.587-.227 6.675-.274 1.523-.693 3.019-1.176 4.484-1.29 3.948-3.184 7.771-6.143 10.75-.49.498-1.105.957-1.851.657a1.001 1.001 0 0 1-.448-.345c-.214-.328-.087-.75.02-1.108l.04-.134c.145-.489.281-.986.41-1.485 1.287-4.838 2.488-10.051 2.247-15.09-.055-1.159-.196-2.334-.7-3.371-.507-1.043-1.443-1.928-2.585-2.11-.652-.112-1.33.021-1.924.31-.28.142-.547.315-.771.534-.37.348-.628.814-.805 1.294-.57 1.503-.37 3.01-.113 4.55.203 1.207.01 2.55-1.089 3.267-.848.546-1.973.587-2.915.221-.949-.364-1.724-1.1-2.254-1.963-1.638-2.636-1.673-6.524-.765-9.41.19-.592.414-1.175.698-1.725a9.722 9.722 0 0 1 3.673-3.928c3.45-2.097 7.663-2.108 11.152-.074 2.24 1.303 3.742 3.255 4.812 5.575Z" clip-rule="evenodd"/>
  <path fill="#EC1651" fill-rule="evenodd" d="M27.494 11.328a5.107 5.107 0 1 0 10.214 0c0-.42-.102-.843-.276-1.224-.433-.927-.93-1.38-.881-2.492.064-1.497-1.859-1.52-2.896-1.52-1.128 0-2.32.157-3.344.668a5.204 5.204 0 0 0-2.008 1.805 5.086 5.086 0 0 0-.809 2.649v.114Z" clip-rule="evenodd"/>
</svg>
