<svg xmlns="http://www.w3.org/2000/svg" width="67" height="68" fill="none" viewBox="0 0 67 68">
  <path fill="#AB924B" fill-rule="evenodd" d="m33.486 34.227 10.093 5.902v.017l-.09-.052c-3.609 2.852-7.053 3.795-10.033 3.795-2.979 0-6.423-.944-10.033-3.795l-.09.052v-.017l10.153-5.902Zm-5.128-20.688h.056l-.056 12.112-10.123 5.669-.015-.018C16.157 16.86 28.358 13.54 28.358 13.54Zm20.335 17.764-.014.017-10.124-5.67-.055-12.11h.055s12.201 3.319 10.138 17.763Zm9.587 6.516c-2.712 6.74-7.255 8.645-7.255 8.645 13.368-13.547 5.204-29.157 5.204-29.157-1.974-3.499.538-5.024.538-5.024-5.742 1.436-3.948 6.19-3.948 6.19 2.886 6.872 2.305 12.455 1.325 15.907l-1.892-1.06.03-.044S56.763 15.613 38.48 9.418l-.016-3.325h-3.857v21.89L52.55 38.21a23.616 23.616 0 0 1-1.034 1.88L33.494 29.65 15.397 40.09a23.616 23.616 0 0 1-1.035-1.88l17.943-10.227V6.093h-3.857l-.016 3.325c-18.283 6.195-13.8 23.858-13.8 23.858l.03.044-1.893 1.06c-.98-3.452-1.56-9.035 1.324-15.907 0 0 1.794-4.754-3.947-6.19 0 0 2.512 1.525.538 5.024 0 0-8.164 15.61 5.204 29.157 0 0-4.544-1.906-7.255-8.645 0 0-1.537-3.287-5.844-2.57 0 0 1.625.737 2.58 3.715 0 0 3.88 12.344 18.862 14.228v6.819h7.356V49.963s-7.804-.062-13.762-6.619l1.85-1.079c.344.326 6.009 5.569 13.736 5.706v.003l.045-.002.045.002v-.003c7.728-.137 13.393-5.38 13.738-5.706l1.849 1.08c-5.958 6.556-13.763 6.618-13.763 6.618V60.01h7.357v-6.819c14.982-1.884 18.862-14.228 18.862-14.228.954-2.978 2.58-3.714 2.58-3.714-4.307-.718-5.844 2.569-5.844 2.569Z" clip-rule="evenodd"/>
</svg>
