<svg xmlns="http://www.w3.org/2000/svg" width="68" height="68" fill="none" viewBox="0 0 68 68">
  <path fill="url(#a)" fill-rule="evenodd" d="M3.861 40.49c0 9.962 8.077 18.043 18.043 18.043 3.19 0 6.186-.837 8.79-2.283V44.6a8.34 8.34 0 0 1-6.639 3.29 8.344 8.344 0 0 1-6.128-14.006 18.54 18.54 0 0 1-2.196-10.357C8.81 26.047 3.861 32.69 3.861 40.49Z" clip-rule="evenodd"/>
  <path fill="url(#b)" fill-rule="evenodd" d="M15.673 24.997c0 3.223.817 6.243 2.254 8.887a8.302 8.302 0 0 1 6.128-2.684 8.29 8.29 0 0 1 2.692.448 8.996 8.996 0 1 1 15.685-8.715 17.907 17.907 0 0 1 4.179-.488c2.169 0 4.249.378 6.172 1.082-.755-9.571-8.758-17.106-18.528-17.106-10.266 0-18.582 8.321-18.582 18.576Z" clip-rule="evenodd"/>
  <path fill="url(#c)" fill-rule="evenodd" d="M42.432 22.933a9.009 9.009 0 0 1 .824 3.763 8.96 8.96 0 0 1-1.487 4.948 8.345 8.345 0 1 1-3.946 12.96V56.25a18.037 18.037 0 0 0 8.788 2.283c9.965 0 18.045-8.08 18.045-18.043 0-9.968-8.08-18.046-18.045-18.046a17.89 17.89 0 0 0-4.179.489Z" clip-rule="evenodd"/>
  <defs>
    <linearGradient id="a" x1="2.297" x2="18.178" y1="30.503" y2="54.255" gradientUnits="userSpaceOnUse">
      <stop stop-color="#0070BC"/>
      <stop offset="1" stop-color="#53C3F2"/>
    </linearGradient>
    <linearGradient id="b" x1="54.845" x2="37.654" y1="12.611" y2=".102" gradientUnits="userSpaceOnUse">
      <stop stop-color="#0070BC"/>
      <stop offset="1" stop-color="#53C3F2"/>
    </linearGradient>
    <linearGradient id="c" x1="56.423" x2="36.654" y1="31.154" y2="41.622" gradientUnits="userSpaceOnUse">
      <stop stop-color="#53C3F2"/>
      <stop offset="1" stop-color="#0070BC"/>
    </linearGradient>
  </defs>
</svg>
