<svg xmlns="http://www.w3.org/2000/svg" width="67" height="68" fill="none" viewBox="0 0 67 68">
  <path fill="url(#a)" fill-rule="evenodd" d="m33.77 3.835-.1 53.441-27.892.306-.2 6.935 55.786.408-.1-7.037-21.617-.204.2-7.445s-2.092-.204 1.594-.102 14.266-2.245 14.444-13.36c.1-6.221-4.682-10.811-4.682-10.811s3.088-1.02 2.989-7.955c-.1-6.935-6.177-13.87-16.039-14.38a45.38 45.38 0 0 0-2.312-.07c-2.192 0-2.071.274-2.071.274Zm5.977 40.387V10.668s8.368-.102 8.368 7.343-6.276 8.873-6.276 8.873 7.97.714 7.87 9.382c-.085 7.444-7.368 7.97-9.426 7.97-.339 0-.536-.014-.536-.014ZM11.755 17.807c-.498 7.037 3.187 10.913 6.674 13.972 3.487 3.06 4.882 5.202 4.882 7.343 0 5.1-8.866 11.117-8.866 11.117l8.068.306s6.974-3.468 7.273-12.035c.299-8.567-11.556-12.442-11.556-20.703 0-8.26 10.958-7.547 10.958-7.547l.299-6.323s-1.588-.306-2.39-.306c-9.764 0-14.844 7.139-15.342 14.176Z" clip-rule="evenodd"/>
  <defs>
    <linearGradient id="a" x1="7.425" x2="7.425" y1="7.623" y2="64.925" gradientUnits="userSpaceOnUse">
      <stop stop-color="#B3D56F"/>
      <stop offset=".479" stop-color="#00AD52"/>
      <stop offset="1" stop-color="#0079AC"/>
    </linearGradient>
  </defs>
</svg>
