<svg xmlns="http://www.w3.org/2000/svg" width="68" height="68" fill="none" viewBox="0 0 68 68">
  <path fill="#FEFEFE" fill-rule="evenodd" d="M33.95 11.414c-18.472 0-30.647 9.695-30.647 21.658 0 11.96 12.175 21.656 30.648 21.656 18.476 0 30.653-9.696 30.653-21.656 0-11.963-12.177-21.658-30.653-21.658Z" clip-rule="evenodd"/>
  <path fill="#0075C1" fill-rule="evenodd" d="M39.412 41.164c5.263-.913 23.032-4.57 20.843-14.71-.788-3.637-4.53-7.638-10.174-10.42-4.511-2.03-10.017-3.208-16.202-3.208-17.15 0-29.077 9.063-29.077 20.245 0 7.788 5.79 14.549 15.1 17.932 1.975-5.2 9.841-8.161 19.51-9.839Z" clip-rule="evenodd"/>
  <path fill="url(#a)" fill-rule="evenodd" d="M33.988 44.751c-7.69.966-11.218 3.45-13.486 6.466 3.919 1.341 8.428 2.097 13.376 2.097 17.152 0 29.079-9.06 29.079-20.242 0-.992-.095-1.966-.278-2.919-.568 13.13-20.276 13.553-28.69 14.598Z" clip-rule="evenodd"/>
  <path fill="#FEFEFE" fill-rule="evenodd" d="M41.082 38.59c-.086-.95-.12-1.6-.12-2.158V30.76h-2.733l.087.174c.003.005.278.549.278 1.739v.01c0 .224.007 3.954-.1 4.856-.66.17-1.542.23-2.114.23-4.335 0-6.536-2.49-6.536-7.394 0-3.744 2.477-6.54 6.021-6.796 1.865-.133 3.66.375 4.79 1.356l.198.172v-2.293l-.095-.018c-1.126-.217-2.449-.445-3.743-.445-6.24 0-9.97 3.286-9.97 8.788 0 5.862 4.553 7.95 8.814 7.95 1.806 0 3.674-.135 5.125-.373l.108-.018-.01-.109ZM14.324 23.95a29.636 29.636 0 0 1 2.08-.102c4.392 0 6.44 2.129 6.44 6.7 0 4.725-1.82 7.024-5.56 7.024-2.738 0-2.96-.133-2.96-1.755V23.95Zm3.005-1.45h-5.752l.068.166c.255.62.24 1.75.223 2.751-.007.236-.01 13.278-.01 13.278l.114.003c.027.003 2.62.096 5.08.096 5.136 0 8.589-3.482 8.589-8.664 0-4.635-3.262-7.63-8.312-7.63Zm30.599 1.272H46.32l-.009 5.55h1.049c2.848 0 4.174-.95 4.174-2.992 0-1.793-1.075-2.558-3.607-2.558Zm-.347 6.82h-1.269v5.337c0 1.181.5 1.642 1.775 1.642 2.632 0 3.912-1.164 3.912-3.558 0-2.27-1.483-3.42-4.418-3.42ZM53.889 26c0 2.01-1.494 3.388-3.056 3.804 2.356.504 3.959 2.127 3.959 4.064 0 3.13-2.372 4.925-6.506 4.925-2.175 0-3.964.032-4.263.038h-.044l-.121.003V24.791c0-1.493-.143-2.139-.145-2.146l-.033-.145h4.92c3.314 0 5.29 1.307 5.29 3.5Z" clip-rule="evenodd"/>
  <defs>
    <linearGradient id="a" x1="65.224" x2="22.196" y1="36.897" y2="39.716" gradientUnits="userSpaceOnUse">
      <stop stop-color="#6AB935"/>
      <stop offset=".306" stop-color="#00A5A9"/>
      <stop offset=".67" stop-color="#008AD5"/>
      <stop offset="1" stop-color="#0075C1"/>
    </linearGradient>
  </defs>
</svg>
