<svg xmlns="http://www.w3.org/2000/svg" width="67" height="68" fill="none" viewBox="0 0 67 68">
  <path fill="#FEFEFE" fill-rule="evenodd" d="M63.931 32.496c0 16.24-13.695 29.395-30.564 29.395-16.886 0-30.578-13.155-30.578-29.395 0-16.234 13.692-29.398 30.578-29.398 16.87 0 30.564 13.164 30.564 29.398Z" clip-rule="evenodd"/>
  <path fill="#0083C9" fill-rule="evenodd" d="M33.367 60.41c16.089 0 29.124-12.535 29.124-28.005 0-15.48-13.035-28.02-29.124-28.02-16.095 0-29.134 12.54-29.134 28.02 0 15.476 13.039 28.005 29.134 28.005Z" clip-rule="evenodd"/>
  <mask id="a" width="59" height="57" x="4" y="4" maskUnits="userSpaceOnUse" style="mask-type:luminance">
    <path fill="#fff" fill-rule="evenodd" d="M33.36 4.378c16.102 0 29.121 12.538 29.121 28.017 0 15.48-13.02 28.018-29.121 28.018S4.239 47.875 4.239 32.395" clip-rule="evenodd"/>
  </mask>
  <g mask="url(#a)">
    <path fill="#0083C9" fill-rule="evenodd" d="M33.488 45.914c12.805 0 23.783 3.446 28.472 8.319a27.36 27.36 0 0 0 2.445-11.365c0-16.066-13.852-29.08-30.917-29.08-17.055 0-30.929 13.029-30.929 29.095 0 4.027.867 7.86 2.461 11.35 4.68-4.873 15.663-8.32 28.468-8.32Z" clip-rule="evenodd"/>
    <path fill="#0084CB" fill-rule="evenodd" d="M33.478 45.956c12.767 0 23.716 3.404 28.404 8.224a26.907 26.907 0 0 0 2.443-11.242c0-15.944-13.823-28.9-30.847-28.9-17.013 0-30.843 12.956-30.843 28.9 0 4 .868 7.8 2.449 11.242 4.67-4.82 15.618-8.224 28.394-8.224Z" clip-rule="evenodd"/>
    <path fill="#0086CC" fill-rule="evenodd" d="M33.479 45.978c12.731 0 23.645 3.382 28.324 8.166a26.588 26.588 0 0 0 2.439-11.163c0-15.813-13.794-28.702-30.763-28.702-16.976 0-30.763 12.898-30.763 28.717 0 3.972.864 7.732 2.432 11.148 4.666-4.784 15.593-8.166 28.33-8.166Z" clip-rule="evenodd"/>
    <path fill="#0088CD" fill-rule="evenodd" d="M33.475 46.002c12.706 0 23.588 3.358 28.248 8.108a26.197 26.197 0 0 0 2.435-11.068c0-15.672-13.755-28.503-30.683-28.503-16.933 0-30.686 12.83-30.686 28.521 0 3.923.855 7.662 2.423 11.05 4.647-4.75 15.56-8.108 28.263-8.108Z" clip-rule="evenodd"/>
    <path fill="#0089CE" fill-rule="evenodd" d="M33.466 46.039c12.677 0 23.54 3.32 28.186 8.04a25.9 25.9 0 0 0 2.426-10.988c0-15.54-13.717-28.305-30.612-28.305-16.89 0-30.603 12.764-30.603 28.33 0 3.885.867 7.6 2.42 10.964 4.653-4.72 15.518-8.041 28.183-8.041Z" clip-rule="evenodd"/>
    <path fill="#008BCF" fill-rule="evenodd" d="M33.466 46.07c12.639 0 23.463 3.302 28.106 7.967A25.447 25.447 0 0 0 63.99 43.17c0-15.449-13.679-28.14-30.523-28.14-16.847 0-30.523 12.691-30.523 28.14 0 3.843.851 7.54 2.413 10.867 4.631-4.665 15.468-7.968 28.11-7.968Z" clip-rule="evenodd"/>
    <path fill="#008DD1" fill-rule="evenodd" d="M33.46 46.103c12.61 0 23.401 3.269 28.039 7.906a25.236 25.236 0 0 0 2.407-10.793c0-15.3-13.634-27.944-30.447-27.944-16.799 0-30.452 12.645-30.452 27.95 0 3.822.867 7.482 2.42 10.787 4.612-4.637 15.423-7.906 28.032-7.906Z" clip-rule="evenodd"/>
    <path fill="#008FD2" fill-rule="evenodd" d="M33.459 46.127c12.565 0 23.354 3.251 27.96 7.837a24.858 24.858 0 0 0 2.403-10.687c0-15.18-13.599-27.758-30.363-27.758-16.754 0-30.366 12.584-30.366 27.767 0 3.792.848 7.418 2.397 10.678 4.612-4.586 15.394-7.837 27.969-7.837Z" clip-rule="evenodd"/>
    <path fill="#0091D3" fill-rule="evenodd" d="M33.456 46.161c12.54 0 23.29 3.217 27.895 7.772a24.666 24.666 0 0 0 2.385-10.607c0-15.037-13.564-27.559-30.28-27.559-16.71 0-30.292 12.522-30.292 27.565 0 3.77.858 7.35 2.403 10.601 4.593-4.555 15.34-7.772 27.89-7.772Z" clip-rule="evenodd"/>
    <path fill="#0093D4" fill-rule="evenodd" d="M33.444 46.192c12.5 0 23.248 3.186 27.824 7.71 1.54-3.232 2.4-6.788 2.4-10.515 0-14.927-13.55-27.354-30.224-27.354-16.669 0-30.203 12.434-30.203 27.354 0 3.727.854 7.283 2.394 10.516 4.586-4.525 15.314-7.711 27.809-7.711Z" clip-rule="evenodd"/>
    <path fill="#0094D6" fill-rule="evenodd" d="M33.443 46.231c12.47 0 23.175 3.147 27.745 7.632a23.823 23.823 0 0 0 2.381-10.427c0-14.786-13.493-27.159-30.126-27.159-16.626 0-30.122 12.373-30.122 27.165 0 3.697.835 7.22 2.38 10.42 4.574-4.484 15.277-7.63 27.742-7.63Z" clip-rule="evenodd"/>
    <path fill="#0096D7" fill-rule="evenodd" d="M33.43 46.256c12.457 0 23.118 3.128 27.682 7.567a23.59 23.59 0 0 0 2.384-10.332c0-14.667-13.468-26.963-30.065-26.963-16.563 0-30.03 12.308-30.03 26.963 0 3.675.835 7.17 2.378 10.332C10.333 49.384 21 46.256 33.43 46.256Z" clip-rule="evenodd"/>
    <path fill="#0098D8" fill-rule="evenodd" d="M33.43 46.29c12.422 0 23.066 3.094 27.598 7.512A23.393 23.393 0 0 0 63.41 43.54c0-14.53-13.422-26.768-29.978-26.768-16.534 0-29.96 12.254-29.96 26.79 0 3.617.835 7.093 2.365 10.24 4.545-4.418 15.19-7.513 27.595-7.513Z" clip-rule="evenodd"/>
    <path fill="#009AD9" fill-rule="evenodd" d="M33.43 46.308c12.38 0 22.986 3.082 27.534 7.448a23.074 23.074 0 0 0 2.36-10.158c0-14.392-13.382-26.581-29.893-26.581-16.492 0-29.88 12.189-29.88 26.59 0 3.614.832 7.042 2.356 10.149 4.532-4.366 15.148-7.448 27.524-7.448Z" clip-rule="evenodd"/>
    <path fill="#009CDB" fill-rule="evenodd" d="M33.43 46.354c12.338 0 22.929 3.036 27.46 7.374a22.893 22.893 0 0 0 2.343-10.075c0-14.26-13.349-26.395-29.802-26.395-16.45 0-29.81 12.134-29.81 26.395 0 3.58.823 6.98 2.35 10.075 4.525-4.338 15.112-7.374 27.46-7.374Z" clip-rule="evenodd"/>
    <path fill="#009EDC" fill-rule="evenodd" d="M33.421 46.387c12.312 0 22.867 3.003 27.377 7.298a22.198 22.198 0 0 0 2.355-9.974c0-14.135-13.32-26.194-29.732-26.194-16.39 0-29.723 12.059-29.723 26.2 0 3.538.839 6.917 2.35 9.968 4.503-4.295 15.064-7.298 27.373-7.298Z" clip-rule="evenodd"/>
    <path fill="#00A0DD" fill-rule="evenodd" d="M33.421 46.415c12.287 0 22.81 2.975 27.303 7.23a21.936 21.936 0 0 0 2.356-9.882c0-14.007-13.292-26.001-29.659-26.001-16.36 0-29.649 12-29.649 26.001 0 3.504.829 6.864 2.346 9.883 4.497-4.256 15.036-7.231 27.303-7.231Z" clip-rule="evenodd"/>
    <path fill="#00A2DE" fill-rule="evenodd" d="M33.418 46.451c12.238 0 22.755 2.957 27.239 7.164a21.742 21.742 0 0 0 2.34-9.785c0-13.89-13.247-25.824-29.58-25.824-16.315 0-29.572 11.933-29.572 25.824 0 3.468.836 6.791 2.337 9.785 4.496-4.207 15.004-7.164 27.236-7.164Z" clip-rule="evenodd"/>
    <path fill="#00A4E0" fill-rule="evenodd" d="M33.405 46.479c12.22 0 22.691 2.93 27.172 7.112 1.504-2.988 2.33-6.272 2.33-9.721 0-13.744-13.212-25.607-29.502-25.607-16.278 0-29.486 11.862-29.486 25.616 0 3.44.835 6.724 2.333 9.712 4.474-4.182 14.953-7.112 27.153-7.112Z" clip-rule="evenodd"/>
    <path fill="#00A6E1" fill-rule="evenodd" d="M33.405 46.51c12.181 0 22.637 2.898 27.092 7.041a21.008 21.008 0 0 0 2.324-9.617c0-13.61-13.164-25.427-29.416-25.427C17.175 18.507 4 30.324 4 43.934c0 3.4.83 6.669 2.33 9.617 4.458-4.143 14.918-7.042 27.076-7.042Z" clip-rule="evenodd"/>
    <path fill="#00A8E2" fill-rule="evenodd" d="M33.405 46.534c12.133 0 22.56 2.887 27.008 6.971 1.511-2.917 2.34-6.125 2.34-9.522 0-13.488-13.147-25.228-29.348-25.228-16.185 0-29.339 11.74-29.339 25.228 0 3.397.832 6.605 2.33 9.522 4.446-4.084 14.88-6.971 27.009-6.971Z" clip-rule="evenodd"/>
    <path fill="#00AAE4" fill-rule="evenodd" d="M33.399 46.57c12.107 0 22.505 2.85 26.938 6.899a20.22 20.22 0 0 0 2.32-9.422c0-13.378-13.105-25.039-29.258-25.039-16.137 0-29.253 11.677-29.253 25.04 0 3.338.83 6.534 2.311 9.42C10.9 49.422 21.295 46.57 33.4 46.57Z" clip-rule="evenodd"/>
    <path fill="#00ADE5" fill-rule="evenodd" d="M33.399 46.598c12.075 0 22.438 2.823 26.867 6.846a20.132 20.132 0 0 0 2.298-9.351c0-13.234-13.051-24.834-29.165-24.834C17.3 19.259 4.22 30.865 4.22 44.093c0 3.315.822 6.483 2.317 9.351 4.42-4.023 14.786-6.846 26.862-6.846Z" clip-rule="evenodd"/>
    <path fill="#00AFE6" fill-rule="evenodd" d="M33.39 46.625c12.055 0 22.393 2.805 26.803 6.773 1.475-2.826 2.298-5.96 2.298-9.247 0-13.115-13.032-24.648-29.102-24.648-16.047 0-29.092 11.548-29.092 24.648 0 3.28.822 6.424 2.31 9.247 4.404-3.968 14.745-6.773 26.782-6.773Z" clip-rule="evenodd"/>
    <path fill="#00B1E8" fill-rule="evenodd" d="M33.39 46.665c12.004 0 22.329 2.765 26.72 6.703 1.475-2.81 2.288-5.924 2.288-9.162 0-12.972-12.99-24.461-29.009-24.461-16.009 0-29.009 11.49-29.009 24.46 0 3.24.803 6.367 2.288 9.163 4.401-3.938 14.72-6.703 26.721-6.703Z" clip-rule="evenodd"/>
    <path fill="#00B3E9" fill-rule="evenodd" d="M33.39 46.683c11.978 0 22.252 2.75 26.65 6.639a19.107 19.107 0 0 0 2.285-9.067c0-12.85-12.966-24.26-28.936-24.26S4.444 31.405 4.444 44.255c0 3.223.81 6.302 2.295 9.067 4.39-3.89 14.674-6.639 26.65-6.639Z" clip-rule="evenodd"/>
    <path fill="#00B5EA" fill-rule="evenodd" d="M33.382 46.726c11.935 0 22.199 2.707 26.574 6.575 1.478-2.753 2.288-5.805 2.288-8.976 0-12.724-12.92-24.073-28.862-24.073-15.919 0-28.845 11.35-28.845 24.073 0 3.171.803 6.232 2.269 8.976 4.384-3.868 14.636-6.575 26.576-6.575Z" clip-rule="evenodd"/>
    <path fill="#00B8EC" fill-rule="evenodd" d="M33.366 46.745c11.922 0 22.15 2.688 26.52 6.519 1.472-2.734 2.275-5.743 2.275-8.893 0-12.587-12.885-23.887-28.795-23.887-15.858 0-28.765 11.3-28.765 23.887 0 3.15.803 6.177 2.282 8.893 4.355-3.83 14.594-6.52 26.483-6.52Z" clip-rule="evenodd"/>
    <path fill="#03BAED" fill-rule="evenodd" d="M33.366 46.79c11.88 0 22.087 2.643 26.433 6.437 1.476-2.703 2.282-5.67 2.282-8.801 0-12.452-12.847-23.673-28.715-23.673-15.826 0-28.682 11.22-28.682 23.673 0 3.125.79 6.104 2.256 8.801 4.362-3.794 14.553-6.436 26.426-6.436Z" clip-rule="evenodd"/>
    <path fill="#12BCEF" fill-rule="evenodd" d="M33.367 46.818c11.842 0 22.019 2.615 26.359 6.357 1.462-2.651 2.263-5.602 2.263-8.685 0-12.33-12.805-23.493-28.622-23.493-15.794 0-28.612 11.163-28.612 23.493 0 3.082.8 6.034 2.266 8.685 4.336-3.742 14.498-6.357 26.346-6.357Z" clip-rule="evenodd"/>
    <path fill="#1BBFF0" fill-rule="evenodd" d="M33.367 46.855c11.803 0 21.961 2.584 26.279 6.3 1.465-2.653 2.262-5.552 2.262-8.613 0-12.205-12.776-23.297-28.541-23.297-15.747 0-28.53 11.092-28.53 23.297 0 3.052.788 5.982 2.244 8.612 4.337-3.715 14.48-6.3 26.286-6.3Z" clip-rule="evenodd"/>
    <path fill="#20C3F3" fill-rule="evenodd" d="M33.36 46.879c11.778 0 21.892 2.566 26.212 6.23 1.456-2.616 2.244-5.485 2.244-8.518 0-12.067-12.732-23.093-28.456-23.093-15.71 0-28.455 11.026-28.455 23.093 0 3.024.794 5.911 2.253 8.517 4.314-3.663 14.428-6.229 26.202-6.229Z" clip-rule="evenodd"/>
    <path fill="#32C5F3" fill-rule="evenodd" d="M33.36 46.943c11.752 0 21.875 2.557 26.186 6.202 1.447-2.588 2.23-5.456 2.23-8.463 0-12-12.708-22.96-28.416-22.96-15.682 0-28.407 10.96-28.407 22.96 0 3 .79 5.875 2.24 8.463 4.301-3.645 14.409-6.202 26.167-6.202Z" clip-rule="evenodd"/>
    <path fill="#3FC6F3" fill-rule="evenodd" d="M33.367 47.013c11.739 0 21.83 2.542 26.135 6.162 1.446-2.578 2.246-5.42 2.246-8.4 0-11.921-12.706-22.825-28.381-22.825-15.673 0-28.392 10.904-28.392 22.824 0 2.976.804 5.83 2.247 8.401 4.298-3.62 14.396-6.162 26.145-6.162Z" clip-rule="evenodd"/>
    <path fill="#4AC8F4" fill-rule="evenodd" d="M33.366 47.087c11.714 0 21.805 2.517 26.097 6.119 1.447-2.557 2.247-5.392 2.247-8.356 0-11.84-12.687-22.674-28.344-22.674-15.644 0-28.343 10.833-28.343 22.674 0 2.964.79 5.799 2.234 8.356 4.308-3.602 14.38-6.12 26.11-6.12Z" clip-rule="evenodd"/>
    <path fill="#54C9F4" fill-rule="evenodd" d="M33.367 47.172c11.71 0 21.772 2.493 26.058 6.062 1.453-2.536 2.243-5.344 2.243-8.295 0-11.752-12.67-22.537-28.301-22.537-15.622 0-28.309 10.785-28.309 22.537 0 2.942.794 5.765 2.231 8.294 4.295-3.568 14.357-6.06 26.078-6.06Z" clip-rule="evenodd"/>
    <path fill="#5CCBF4" fill-rule="evenodd" d="M33.367 47.233c11.694 0 21.744 2.478 26.029 6.04 1.437-2.536 2.24-5.325 2.24-8.245 0-11.68-12.658-22.39-28.27-22.39-15.605 0-28.263 10.71-28.263 22.39 0 2.92.784 5.716 2.231 8.245 4.289-3.562 14.316-6.04 26.033-6.04Z" clip-rule="evenodd"/>
    <path fill="#64CDF5" fill-rule="evenodd" d="M33.366 47.307c11.682 0 21.719 2.465 25.994 5.994 1.437-2.52 2.225-5.282 2.225-8.182 0-11.602-12.623-22.261-28.219-22.261-15.59 0-28.225 10.659-28.225 22.261 0 2.9.784 5.68 2.221 8.182 4.28-3.529 14.326-5.994 26.004-5.994Z" clip-rule="evenodd"/>
    <path fill="#6CCEF5" fill-rule="evenodd" d="M33.366 47.386c11.666 0 21.696 2.441 25.956 5.936 1.443-2.49 2.234-5.236 2.234-8.126 0-11.524-12.63-22.115-28.19-22.115-15.55 0-28.193 10.607-28.193 22.115 0 2.89.788 5.636 2.221 8.126 4.286-3.495 14.303-5.936 25.972-5.936Z" clip-rule="evenodd"/>
    <path fill="#73D0F5" fill-rule="evenodd" d="M33.366 47.444c11.653 0 21.661 2.438 25.93 5.924 1.428-2.48 2.231-5.221 2.231-8.08 0-11.448-12.616-21.972-28.16-21.972-15.542 0-28.162 10.524-28.162 21.971 0 2.86.8 5.606 2.225 8.08 4.276-3.485 14.283-5.923 25.936-5.923Z" clip-rule="evenodd"/>
    <path fill="#7AD2F6" fill-rule="evenodd" d="M33.367 47.517c11.624 0 21.622 2.414 25.885 5.875 1.443-2.45 2.23-5.172 2.23-8.025 0-11.362-12.587-21.822-28.115-21.822-15.52 0-28.113 10.46-28.113 21.822 0 2.853.787 5.575 2.211 8.025 4.27-3.461 14.258-5.875 25.902-5.875Z" clip-rule="evenodd"/>
    <path fill="#81D3F6" fill-rule="evenodd" d="M33.366 47.594c11.624 0 21.6 2.398 25.847 5.832 1.444-2.453 2.225-5.142 2.225-7.965 0-11.285-12.565-21.68-28.072-21.68-15.493 0-28.084 10.395-28.084 21.68 0 2.823.8 5.518 2.221 7.965 4.257-3.434 14.233-5.823 25.863-5.832Z" clip-rule="evenodd"/>
    <path fill="#87D5F6" fill-rule="evenodd" d="M33.366 47.649c11.605 0 21.565 2.407 25.825 5.807 1.411-2.431 2.205-5.104 2.205-7.909C61.396 34.335 48.853 24 33.366 24 17.89 24 5.334 34.335 5.334 45.547c0 2.805.784 5.487 2.208 7.91 4.247-3.4 14.213-5.802 25.824-5.808Z" clip-rule="evenodd"/>
    <path fill="#8ED7F7" fill-rule="evenodd" d="M33.366 47.734c11.586 0 21.54 2.362 25.783 5.744 1.428-2.398 2.218-5.056 2.218-7.84 0-11.15-12.54-21.409-28-21.409-15.452 0-28.011 10.259-28.011 21.41 0 2.783.79 5.447 2.211 7.839 4.254-3.382 14.21-5.744 25.8-5.744Z" clip-rule="evenodd"/>
    <path fill="#94D9F7" fill-rule="evenodd" d="M33.367 47.799c11.573 0 21.507 2.358 25.744 5.715 1.425-2.395 2.215-5.031 2.215-7.799 0-11.05-12.517-21.266-27.96-21.266-15.432 0-27.962 10.216-27.962 21.266 0 2.768.781 5.41 2.199 7.8 4.247-3.358 14.19-5.716 25.764-5.716Z" clip-rule="evenodd"/>
    <path fill="#9ADBF7" fill-rule="evenodd" d="M33.367 47.881c11.554 0 21.481 2.325 25.706 5.67 1.424-2.383 2.224-5.004 2.224-7.741 0-10.98-12.507-21.113-27.93-21.113-15.42 0-27.918 10.14-27.918 21.113 0 2.737.775 5.358 2.202 7.741 4.238-3.345 14.159-5.67 25.716-5.67Z" clip-rule="evenodd"/>
    <path fill="#A0DDF8" fill-rule="evenodd" d="M33.366 47.948c11.548 0 21.444 2.316 25.671 5.643 1.418-2.374 2.209-4.974 2.209-7.705 0-10.903-12.492-20.976-27.88-20.976-15.397 0-27.892 10.073-27.892 20.976 0 2.74.794 5.337 2.2 7.705 4.23-3.327 14.148-5.643 25.692-5.643Z" clip-rule="evenodd"/>
    <path fill="#A6DEF8" fill-rule="evenodd" d="M33.366 48.019c11.522 0 21.411 2.303 25.652 5.596 1.395-2.346 2.18-4.93 2.18-7.637 0-10.809-12.457-20.835-27.832-20.835s-27.84 10.03-27.84 20.835c0 2.706.77 5.291 2.182 7.637 4.231-3.293 14.13-5.596 25.658-5.596Z" clip-rule="evenodd"/>
    <path fill="#ACE0F9" fill-rule="evenodd" d="M33.367 48.095c11.509 0 21.395 2.276 25.61 5.542 1.411-2.325 2.199-4.888 2.199-7.568 0-10.75-12.46-20.71-27.81-20.71-15.355 0-27.811 9.96-27.811 20.695 0 2.695.78 5.267 2.205 7.583 4.212-3.266 14.095-5.542 25.607-5.542Z" clip-rule="evenodd"/>
    <path fill="#B2E2F9" fill-rule="evenodd" d="M33.366 48.162c11.49 0 21.357 2.264 25.575 5.517 1.396-2.315 2.183-4.857 2.183-7.53 0-10.65-12.421-20.542-27.758-20.542C18.03 25.607 5.6 35.5 5.6 46.15c0 2.673.781 5.22 2.186 7.53 4.212-3.253 14.085-5.517 25.581-5.517Z" clip-rule="evenodd"/>
    <path fill="#B8E4F9" fill-rule="evenodd" d="M33.367 48.245c11.473 0 21.327 2.233 25.527 5.465 1.41-2.3 2.198-4.824 2.198-7.479 0-10.585-12.414-20.4-27.725-20.4-15.311 0-27.732 9.824-27.732 20.4 0 2.661.774 5.179 2.182 7.479 4.212-3.232 14.06-5.465 25.55-5.465Z" clip-rule="evenodd"/>
    <path fill="#BDE6FA" fill-rule="evenodd" d="M33.367 48.312c11.457 0 21.299 2.236 25.495 5.426 1.408-2.276 2.195-4.79 2.195-7.418 0-10.506-12.392-20.258-27.69-20.258-15.282 0-27.697 9.758-27.697 20.258 0 2.633.784 5.142 2.189 7.418 4.199-3.19 14.047-5.426 25.508-5.426Z" clip-rule="evenodd"/>
    <path fill="#C3E8FA" fill-rule="evenodd" d="M33.366 48.376c11.442 0 21.264 2.22 25.454 5.395 1.411-2.27 2.192-4.747 2.192-7.356 0-10.427-12.37-20.12-27.646-20.12-15.279 0-27.648 9.693-27.648 20.12 0 2.618.768 5.086 2.166 7.356 4.202-3.174 14.034-5.38 25.482-5.395Z" clip-rule="evenodd"/>
    <path fill="#C9EAFA" fill-rule="evenodd" d="M33.367 48.446c11.425 0 21.241 2.203 25.42 5.356 1.415-2.246 2.196-4.714 2.196-7.302 0-10.344-12.366-19.98-27.616-19.98-15.244 0-27.614 9.636-27.614 19.98 0 2.594.774 5.056 2.173 7.302 4.183-3.153 14.008-5.347 25.44-5.356Z" clip-rule="evenodd"/>
    <path fill="#CEECFB" fill-rule="evenodd" d="M33.366 48.52c11.41 0 21.223 2.19 25.386 5.303 1.402-2.218 2.186-4.668 2.186-7.237 0-10.268-12.344-19.84-27.572-19.84-15.23 0-27.575 9.572-27.575 19.84 0 2.575.768 5.02 2.167 7.237 4.192-3.113 13.986-5.303 25.408-5.303Z" clip-rule="evenodd"/>
    <path fill="#D4EEFB" fill-rule="evenodd" d="M33.367 48.596c11.403 0 21.177 2.163 25.36 5.26 1.399-2.199 2.18-4.637 2.18-7.19 0-10.183-12.329-19.696-27.54-19.696-15.212 0-27.537 9.513-27.537 19.695 0 2.563.778 4.992 2.163 7.192 4.187-3.098 13.977-5.261 25.374-5.261Z" clip-rule="evenodd"/>
    <path fill="#D9F0FB" fill-rule="evenodd" d="M33.366 48.66c11.387 0 21.146 2.154 25.329 5.224 1.389-2.181 2.176-4.6 2.176-7.127 0-10.106-12.319-19.564-27.505-19.564-15.196 0-27.511 9.458-27.511 19.552 0 2.544.774 4.97 2.18 7.14 4.173-3.071 13.944-5.213 25.331-5.225Z" clip-rule="evenodd"/>
    <path fill="#DFF2FC" fill-rule="evenodd" d="M33.366 48.736c11.371 0 21.127 2.142 25.287 5.19 1.386-2.18 2.17-4.566 2.17-7.084 0-10.023-12.29-19.426-27.457-19.426-15.173 0-27.466 9.403-27.466 19.417 0 2.527.774 4.913 2.167 7.094 4.17-3.049 13.938-5.19 25.3-5.19Z" clip-rule="evenodd"/>
    <path fill="#E5F4FC" fill-rule="evenodd" d="M33.367 48.804c11.349 0 21.097 2.126 25.239 5.144 1.392-2.15 2.17-4.518 2.17-7.023 0-9.947-12.271-19.262-27.41-19.262-15.147 0-27.418 9.315-27.418 19.262 0 2.508.765 4.873 2.145 7.023 4.17-3.018 13.931-5.144 25.274-5.144Z" clip-rule="evenodd"/>
    <path fill="#EAF6FD" fill-rule="evenodd" d="M33.367 48.886c11.336 0 21.062 2.087 25.21 5.099 1.389-2.136 2.173-4.491 2.173-6.972 0-9.873-12.27-19.115-27.383-19.115-15.129 0-27.396 9.242-27.396 19.11 0 2.492.777 4.841 2.157 6.977 4.17-3.012 13.909-5.099 25.239-5.099Z" clip-rule="evenodd"/>
    <path fill="#F0F8FD" fill-rule="evenodd" d="M33.366 48.947c11.32 0 21.03 2.087 25.182 5.062 1.382-2.123 2.16-4.454 2.16-6.907 0-9.791-12.245-18.987-27.342-18.987-15.11 0-27.35 9.196-27.35 18.987 0 2.456.767 4.784 2.15 6.907 4.16-2.975 13.883-5.062 25.2-5.062Z" clip-rule="evenodd"/>
    <path fill="#F6FBFD" fill-rule="evenodd" d="M33.366 49.024c11.298 0 20.989 2.062 25.146 5.007 1.383-2.087 2.164-4.415 2.164-6.843 0-9.721-12.242-18.847-27.31-18.847-15.087 0-27.31 9.126-27.31 18.837 0 2.457.772 4.766 2.142 6.853 4.16-2.945 13.864-4.998 25.168-5.007Z" clip-rule="evenodd"/>
    <path fill="#FEFEFE" fill-rule="evenodd" d="M33.367 49.094c11.294 0 20.966 2.056 25.11 4.986 1.373-2.1 2.151-4.396 2.151-6.813 0-9.623-12.197-18.697-27.261-18.697-15.068 0-27.262 9.074-27.262 18.697 0 2.432.762 4.714 2.135 6.813 4.154-2.93 13.829-4.986 25.127-4.986Z" clip-rule="evenodd"/>
  </g>
  <path fill="#0083C9" fill-rule="evenodd" d="M33.367 39.468c-9.867 0-19.046 1.616-26.618 4.325 4.547 9.81 14.744 16.617 26.618 16.617 11.873 0 22.08-6.813 26.618-16.616-7.566-2.71-16.742-4.326-26.618-4.326Z" clip-rule="evenodd"/>
</svg>
