<svg xmlns="http://www.w3.org/2000/svg" width="67" height="68" fill="none" viewBox="0 0 67 68">
  <path fill="#60B1DC" fill-rule="evenodd" d="m35.343 3.332-14.444 9.436c-3.451 4.23.423 6.843 7.425 9.967-.996-.482-.396-1.921.416-2.359 6.775-4.064 9.95-6.144 10.212-8.989.296-3.826-.989-6.801-3.61-8.055Zm-.841 39.746 11.082 5.194c4.262-4.194-.96-6.642-5.68-8.855-.51-.238-1.012-.474-1.497-.709 1.068.63.283 1.515-.272 1.877l-3.633 2.493ZM21.098 52.06l-5.682 3.82c-4.388 2.94 3.557 10.734 8.616 7.338l8.71-5.713-11.644-5.445Z" clip-rule="evenodd"/>
  <path fill="#A4C7A2" fill-rule="evenodd" d="m46.89 15.034-12.894 8.197 11.406 5.366c2.944-1.409 5.186-3.465 5.328-6.84.069-3.296-1.157-5.651-3.84-6.723Zm-15.012 22.51-11.276-5.207c-2.965 4.854 1.032 6.674 4.752 8.368a41.36 41.36 0 0 1 2.067.986c-.696-.393-.16-.768.33-1.11.11-.077.22-.153.31-.227l3.817-2.81Z" clip-rule="evenodd"/>
  <path fill="#008BBC" fill-rule="evenodd" d="M20.854 12.81c-2.98 1.818-5.61 5.114-5.493 9.79.14 3.644 2.393 6.586 7.786 9.065l16.73 7.75c6.034 2.758 9.523 5.079 5.652 8.857 4.002-1.87 6.457-5.025 5.782-10.604-.423-3.403-3.003-5.755-7.004-7.539l-15.942-7.394c-7.232-3.344-10.783-5.534-7.511-9.925Z" clip-rule="evenodd"/>
  <path fill="#56A954" fill-rule="evenodd" d="M20.561 32.337c-3.317 1.787-5.696 4.952-5.37 9.536.266 3.737 2.295 6.664 6.159 8.4 9.529 4.28 19.003 8.627 27.885 14.02 2.8-3.826 2.855-11.003-3.375-13.924l-18.38-8.678c-6.981-3.3-9.35-4.102-6.919-9.354Z" clip-rule="evenodd"/>
</svg>
