<svg xmlns="http://www.w3.org/2000/svg" width="68" height="68" fill="none" viewBox="0 0 68 68">
  <path fill="#FCB813" fill-rule="evenodd" d="M55.754 32.07c-4.223.85-5.774 3.282-6.886 2.717-.972-.791.09-5.294.32-7.106.295-2.373-2.9-3.823-3.99-.91-.903 2.909-.478 13.2-.277 15.018.212 1.952 3.63 1.875 3.99.18.107-.532.384-1.648 1.178-3.207 3.41-6.428 10.867-3.6 10.135.913-1.263 6.909-14.082 6.762-15.771 5.289-2.53-1.8-10.54-7.115-18.281-12.154.01-.358.024-.74.04-1.097 10.77-6.294 21.617-12.664 22.975-13.856 2.14-1.903-.229-5.29-2.975-3.116-1.833 1.47-10.531 7.133-19.716 12.95.625-7.029 1.737-11.07 2.227-12.925.909-3.457-4.04-4.752-4.883-1.265a101.364 101.364 0 0 0-2.55 16.157c-5.226-3.35-9.705-6.178-11.39-7.072-4.878-2.61-5.386 2.18-3.444 3.083.931.446 5.859 3.42 11.903 7.136-6.08 3.807-11.511 7.12-14.248 8.69-1.819 1.487-.253 3.469 1.62 2.365 3.01-1.89 8.844-5.32 15.286-9.101-.248 10.079 1.165 17.376 2.272 19.647 1.446 2.92 3.828 1.646 3.446-1.093-.516-6.05-.704-11.279-.683-15.763 9.338 5.77 18.64 11.583 19.51 12.125 2.165 1.346 4.165-.19 4.35-1.275 7.532-.703 12.762-2.014 14.445-7.971 1.73-6.09-4.119-9.258-8.603-8.36Z" clip-rule="evenodd"/>
</svg>
