<svg xmlns="http://www.w3.org/2000/svg" width="68" height="68" fill="none" viewBox="0 0 68 68">
  <path fill="#044DA1" fill-rule="evenodd" d="M57.438 42.815c2.16.142 1.474-.854.947-1.558-3.111-4.227 2.173-6.5 6.22-7.048-.274 21.579-22.185 24.553-30.441 24.268-10.555.704-29.366-6.642-30.86-20.893 4.877 5.089 13.123 6.075 17.323 4.664.125-.052.282-.095.444-.14.725-.199 1.565-.43.241-1.69-5.157-6.916 10.684-8.187 17.709-7.62 2.175.137 1.5-.85.957-1.548-2.981-4.153 2.52-5.562 5.224-6.256.606-.155 1.072-.274 1.27-.38.952-.275 2.985-1.403.414-2.258-5.279-1.41-14.742-3.256-22.059.28-5.007 2.832-4.2 6.494-.274 8.184-9.735-2.539-16.772-1.553-21.11 2.55 3.794-14.684 20.841-19.058 30.31-18.905 10.963-.153 24.223 4.095 30.446 17.484-6.36-1.833-13.39-1.69-20.026.424-6.09 3.238-4.738 5.778-1.347 8.47-5.965-.987-14.365-1.69-19.494 1.542-4.29 3.077-3.14 4.516-2.274 5.598.09.112.177.22.254.327 4.325 3.96 10.684 4.237 17.709 4.097 1.772-.416 2.043-.84.556-2.114-4.337-6.78 10.819-8.045 17.861-7.478ZM28.611 26.728c.807-.277 1.081-1.26.807-1.975a1.476 1.476 0 0 0-1.89-.838c-.673.424-1.079 1.279-.673 1.977.261.691 1.086 1.131 1.756.836ZM9.945 35.611c.807-.419 1.079-1.265.807-1.964-.25-.712-1.094-1.136-1.901-.849-.67.282-1.07 1.134-.67 1.96.277.719 1.084 1.138 1.764.853Zm35.18 0c.263.863.938 1.419 1.895 1.277.805-.137 1.35-.992 1.205-1.84-.123-.84-.938-1.401-1.885-1.264-.67.148-1.366.973-1.215 1.827Zm-18.676 9.181c-.274-.709.14-1.705.823-1.977.801-.285 1.476 0 1.882.844.264.706 0 1.55-.814 1.975-.665.284-1.485-.145-1.891-.842Z" clip-rule="evenodd"/>
</svg>
