<svg xmlns="http://www.w3.org/2000/svg" width="68" height="67" fill="none" viewBox="0 0 68 67">
  <path fill="url(#a)" fill-rule="evenodd" d="m34.465 5.579 18.85 29.599c1.367 2.151 2.478 6.604 1.39 8.761l9.04-14.168c.925-1.46.972-3.846.01-5.359L53.475 8.263c-.932-1.454-3.062-2.684-5.239-2.684h-13.77Z" clip-rule="evenodd"/>
  <path fill="url(#b)" fill-rule="evenodd" d="M34.69 48.38h13.56c2.405 0 4.302-1.05 5.326-2.671l1.13-1.77c1.088-2.157-.023-6.61-1.39-8.762l-6.367-9.996c.757 1.51.3 3.377-.203 4.167L34.69 48.38Z" clip-rule="evenodd"/>
  <path fill="url(#c)" fill-rule="evenodd" d="M33.39 58.712 14.54 29.114c-1.367-2.152-2.478-6.605-1.39-8.762L4.109 34.52c-.924 1.46-.972 3.846-.009 5.359l10.28 16.149c.932 1.454 3.062 2.684 5.238 2.684H33.39Z" clip-rule="evenodd"/>
  <path fill="url(#d)" fill-rule="evenodd" d="M33.164 15.91H19.605c-2.405 0-4.302 1.05-5.326 2.672l-1.13 1.77c-1.088 2.157.023 6.61 1.39 8.762l6.367 9.996c-.757-1.51-.3-3.377.203-4.167L33.164 15.91Z" clip-rule="evenodd"/>
  <defs>
    <radialGradient id="a" cx="0" cy="0" r="1" gradientTransform="matrix(-18.45956 -28.21454 26.26418 -17.18353 61.765 33.793)" gradientUnits="userSpaceOnUse">
      <stop stop-color="#D1EBFF"/>
      <stop offset=".448" stop-color="#72A5D1"/>
      <stop offset=".723" stop-color="#4060AB"/>
      <stop offset="1" stop-color="#1A3B97"/>
    </radialGradient>
    <radialGradient id="b" cx="0" cy="0" r="1" gradientTransform="rotate(132.605 18.314 26.718) scale(22.47 23.4248)" gradientUnits="userSpaceOnUse">
      <stop stop-color="#1A3B97"/>
      <stop offset=".105" stop-color="#1A3B97"/>
      <stop offset=".64" stop-color="#7EB4DB"/>
      <stop offset="1" stop-color="#D3ECFF"/>
    </radialGradient>
    <radialGradient id="c" cx="0" cy="0" r="1" gradientTransform="rotate(56.805 -25.155 20.88) scale(33.7167 31.386)" gradientUnits="userSpaceOnUse">
      <stop stop-color="#D1EBFF"/>
      <stop offset=".448" stop-color="#72A5D1"/>
      <stop offset=".723" stop-color="#4060AB"/>
      <stop offset="1" stop-color="#1A3B97"/>
    </radialGradient>
    <radialGradient id="d" cx="0" cy="0" r="1" gradientTransform="rotate(-47.396 46.292 -3.426) scale(22.47 23.4248)" gradientUnits="userSpaceOnUse">
      <stop stop-color="#1A3B97"/>
      <stop offset=".105" stop-color="#1A3B97"/>
      <stop offset=".64" stop-color="#7EB4DB"/>
      <stop offset="1" stop-color="#D3ECFF"/>
    </radialGradient>
  </defs>
</svg>
