<svg xmlns="http://www.w3.org/2000/svg" width="67" height="68" fill="none" viewBox="0 0 67 68">
  <path fill="url(#a)" fill-rule="evenodd" d="M31.822 3.5C15.279 4.248 2.476 18.261 3.226 34.805c.746 16.538 14.764 29.34 31.305 28.59 16.537-.749 29.34-14.764 28.59-31.302-.725-16.08-13.987-28.625-29.919-28.626-.458 0-.918.01-1.38.031Z" clip-rule="evenodd"/>
  <path fill="url(#b)" fill-rule="evenodd" d="M31.802 3.078C15.53 3.81 2.83 17.214 2.79 33.33v.148c.001.44.011.882.032 1.326.759 16.762 14.962 29.734 31.728 28.978 16.761-.756 29.74-14.962 28.978-31.727-.736-16.292-14.18-29.01-30.325-29.01-.465 0-.931.01-1.4.032Zm3.617 57.078c-.03-.686.977-.86.977-.86 8.987-1.768 6.36-7.664 3.177-10.67-1.337-1.267-13.843-12.057-13.843-12.057C13.8 26.296 14.757 18.28 14.757 18.28c.572-9.87 9.214-12.318 15.75-11.751.763.067 1.187.532 1.052 1.167-.144.698-1.157.75-1.157.75-2.078.12-3.939.335-5.352 1.286-5.27 3.542-3.711 9.571 3.309 16.28.88.843 1.821 1.731 2.784 2.631 0 0 1.414 1.247 4.217 3.916a1654.27 1654.27 0 0 0 8.364 7.664c9.517 7.928 6.27 15.174 2.626 17.693-2.772 1.92-5.846 2.825-9.877 3.039a.79.79 0 0 1-.111.008c-.37 0-.915-.227-.943-.807Zm2.225-29.265c-3.085-.648-3.713-3.452-3.713-3.452-.251-.982-.313-2.224-.107-3.807.423-3.317 1.314-4.878 2.332-7.447 1.373-3.453-1.965-5.473-1.41-6.743.748-1.72 3.13.466 5.788.624 2.293.127 3.665.011 5.443.252 2.371.314 5.198 1.113 6.457 2.595 1.155 1.346-.61 3.003-2.735 1.967-1.547-.755-3.5-.293-2.353 1.323 1.374 1.539 2.04 1.585 3.443 1.95 3.868 1.021 3.951 4.727 1.33 6.644-2.98 2.182-5.998 1.28-7.21-3.002-.601-2.132-2.113-3.22-3.655-2.608-1.537.6-.63 3.411.538 6.014 2.03 5.18-2.08 5.712-3.644 5.712a4.83 4.83 0 0 1-.504-.023ZM26.321 59.188c-3.353-.33-7.365-1.387-10.853-4.41-3.211-2.778-5.203-6.594-6.165-9.941-.991-3.433-1.403-7.45.227-7.13.503.099 1.37 2.302 2.315 3.912.974 1.657 1.764 2.571 2.514 3.13.336.258 1.482-2.293 3.146-3.742.968-.797 2.027-1.073 2.197 1.312.212 2.927-.317 6.412.537 6.412.801 0 2.596-.606 6.556-.94 1.49-.128 2.335.153.915 2.155-.707.996-1.654 2.406-3.896 4.013 3.36 3.146 7.396 2.774 7.468 4.109.044.77-1.464 1.196-3.447 1.196-.482 0-.992-.024-1.514-.076Z" clip-rule="evenodd"/>
  <defs>
    <radialGradient id="a" cx="0" cy="0" r="1" gradientTransform="matrix(1.29601 28.00112 -27.99953 1.29594 39.32 26.192)" gradientUnits="userSpaceOnUse">
      <stop offset=".001" stop-color="#FEFDFC"/>
      <stop offset="1" stop-color="#D3A243"/>
    </radialGradient>
    <radialGradient id="b" cx="0" cy="0" r="1" gradientTransform="matrix(10.35814 23.00065 -21.5371 9.69905 40.618 32.176)" gradientUnits="userSpaceOnUse">
      <stop stop-color="#00A8E2"/>
      <stop offset=".184" stop-color="#00AFE7"/>
      <stop offset="1" stop-color="#005BAC"/>
    </radialGradient>
  </defs>
</svg>
