<svg xmlns="http://www.w3.org/2000/svg" width="68" height="67" fill="none" viewBox="0 0 68 67">
  <path fill="#25247B" fill-rule="evenodd" d="m23.535 40.23-1.403.248c-.748 0-.784-.327-.784-1.268v-5.973h1.76v-1.795h-1.76v-3.268l-.306.183-1.849 1.143v1.942h-1.28v1.795h1.28v5.872c0 1.77 0 3.446 2.636 3.446l1.944-.322.029-.222-.267-1.78ZM11.07 38.307l.02-.199 2.238.369-.036.206c-.666 3.87-4.129 3.976-4.839 3.976-3.987 0-5.407-2.95-5.407-5.712 0-5.332 4.136-5.747 5.407-5.747.821 0 2.93.12 4.026 1.735.446.66.532 1.085.61 1.467l.015.073.036.209-2.173.556-.047-.177c-.336-1.305-1.264-1.854-2.491-1.854-2.674 0-3.215 2.265-3.215 3.695 0 1.447.505 3.747 3.085 3.747 2.036 0 2.655-1.417 2.771-2.344Zm3.211-6.864h2.16v10.97h-2.16v-10.97Zm11.66 0H28.1v10.97h-2.16v-10.97Zm6.038 8.585c-.256-.395-.488-.978-.488-2.56 0-2.207 1.106-3.744 2.7-3.744 1.637 0 2.654 1.456 2.654 3.795 0 2.83-1.459 3.833-2.704 3.833-.856 0-1.58-.445-2.162-1.324Zm-1.535-9.862V42.03h1.059v-1.657l.4.573c.722 1.137 1.791 1.306 2.359 1.306 1.403 0 3.786-1.023 3.786-4.86 0-2.771-1.458-4.568-3.714-4.568-1.446 0-2.14.906-2.323 1.178l-.368.562-.036-.672v-4.443l-1.163.717Zm12.053 7.752c-.937.14-2.349.355-2.349 1.796 0 .78.535 1.69 2.051 1.69.45 0 1.58-.091 2.363-.951.692-.763.753-1.581.753-2.35v-.88l-.272.107c-.574.222-1.688.455-2.546.587Zm-3.094-2.538-.216-.029c.208-.894.782-2.527 3.916-2.527 3.372 0 3.372 1.696 3.372 3.334V38.3c0 2.163.023 2.922.393 3.729h-1.194a3.133 3.133 0 0 1-.246-.9l-.063-.449-.274.242c-1.353 1.172-2.411 1.329-3.27 1.329-1.814 0-2.946-.96-2.946-2.503 0-2.297 2.403-2.605 3.458-2.735l.18-.025.093-.013c.57-.076 1.837-.247 2.57-.517l.13-.045.009-.14v-.016c.016-.575.038-1.361-.48-1.908-.398-.418-1.041-.626-1.963-.626-1.96 0-2.347 1.012-2.546 1.772-.18-.019-.61-.075-.923-.116Zm10.421-1.102-.37.568-.037-.68v-1.124h-1.005v8.988h1.173v-4.928c0-.61.023-1.312.334-2.005.365-.768 1.32-1.301 2.317-1.301 2.12 0 2.12 1.912 2.12 2.725v5.509h1.16v-5.582c0-.974 0-1.618-.383-2.354-.49-.938-1.697-1.27-2.577-1.27-.822 0-1.965.253-2.732 1.454Zm7.27 7.752V30.165l1.165-.717v7.695s3.867-3.98 3.98-4.102h1.452c-.573.572-3.285 3.251-3.285 3.251l3.76 5.737H62.73l-3.133-4.918-1.338 1.297v3.621h-1.165Z" clip-rule="evenodd"/>
  <path fill="#EC1D24" fill-rule="evenodd" d="M15.452 30.182c.8-1.566 3.104-2.99 5.625-2.99 2.528 0 4.893 1.424 5.702 2.99h2.578c-.889-2.61-4.238-5.05-8.25-5.05-4.01 0-7.364 2.44-8.25 5.05h2.595Z" clip-rule="evenodd"/>
</svg>
