<svg xmlns="http://www.w3.org/2000/svg" width="68" height="67" fill="none" viewBox="0 0 68 67">
  <path fill="#E32313" fill-rule="evenodd" d="M55.964 19.525h-39.15c-2.183 0-3.711 1.375-4.076 3.075-.195.938.16 1.762.877 2.332l14.066 9.285.01-.005.002.005 28.297-14.59c.112-.054.101-.102-.026-.102Zm.738 8.328h-16.63L37.37 40.581h16.626c.126 0 .14-.052.038-.12l-9.458-6.235 12.151-6.266c.11-.057.098-.107-.025-.107Zm-29.009 6.364 22.062 14.572c.106.068.088.123-.036.123H10.57c-2.189 0-3.131-1.377-2.767-3.075.197-.93.905-1.764 1.862-2.33l18.016-9.29.008.003.004-.003Z" clip-rule="evenodd"/>
  <path fill="#EE7D00" fill-rule="evenodd" d="M61.814 27.853h-2.388c-.121 0-.314.05-.422.107l-11.969 6.166c-.11.052-.113.157-.01.226l9.282 6.11a.93.93 0 0 0 .414.12h2.387c.126 0 .139-.053.037-.12l-9.473-6.236L61.84 27.96c.108-.057.096-.107-.026-.107Z" clip-rule="evenodd"/>
  <path fill="#FAB900" fill-rule="evenodd" d="M66.92 27.853h-2.388c-.124 0-.312.05-.425.107l-11.964 6.166c-.113.052-.113.157-.01.226l9.281 6.11c.101.065.29.12.414.12h2.385c.125 0 .144-.053.038-.12l-9.473-6.236 12.166-6.266c.11-.057.101-.107-.025-.107Z" clip-rule="evenodd"/>
</svg>
