<svg xmlns="http://www.w3.org/2000/svg" width="36" height="36" viewBox="0 0 24 24" class="footer_svg" fill="#000000">
                                        <path d="M20 0a4 4 0 0 1 4 4v16a4 4 0 0 1-4 4H4a4 4 0 0 1-4-4V4a4 4 0 0 1 4-4h16zm-5.08 7.63l-.23-.01c-1.06 0-2.05.7-2.6.7-.57 0-1.47-.68-2.42-.66a3.6 3.6 0 0 0-3.05 1.88c-1.3 2.3-.34 5.7.93 7.56l.22.33c.58.8 1.25 1.6 2.1 1.57.94-.04 1.3-.62 2.42-.62 1.13 0 1.45.62 2.43.6.78-.01 1.33-.55 1.83-1.22l.1-.14.33-.48c.42-.63.7-1.26.86-1.66l.1-.3L18 15l-.12-.05a3.34 3.34 0 0 1-.55-5.64l.14-.1.14-.1a3.4 3.4 0 0 0-2.53-1.47l-.16-.01-.23-.01h.23zM14.93 4c-.74.03-1.63.5-2.17 1.14-.47.56-.89 1.45-.78 2.32.83.06 1.67-.43 2.19-1.07.51-.63.86-1.51.76-2.39z"></path>
                                    </svg>