<svg xmlns="http://www.w3.org/2000/svg" width="36" height="36" viewBox="0 0 24 24" class="footer_svg" fill="#1578d7">
                                        <path d="M12 0a12 12 0 1 1 0 24 12 12 0 0 1 0-24zM8.87 5A3.85 3.85 0 0 0 5 8.82c0 .7.2 1.36.53 1.93a6.63 6.63 0 0 0 7.76 7.8 3.9 3.9 0 0 0 1.84.45 3.85 3.85 0 0 0 3.47-5.51 6.63 6.63 0 0 0-7.67-7.9c-.6-.37-1.3-.59-2.06-.59zm3.16 2.44c.6 0 1.12.07 1.56.2.44.14.81.32 1.1.55.3.22.51.46.65.72.14.25.2.5.2.75a.9.9 0 0 1-.26.63.92.92 0 0 1-.69.28.86.86 0 0 1-.58-.17 2.16 2.16 0 0 1-.4-.53 2.19 2.19 0 0 0-.6-.73c-.22-.17-.6-.25-1.1-.25-.49 0-.88.1-1.17.28-.27.18-.4.39-.4.63 0 .15.03.28.12.39.1.11.23.21.4.3.18.08.36.15.54.2l.3.08.62.14c.54.12 1.04.25 1.48.38.45.14.83.32 1.14.52.32.2.58.47.76.78.18.32.27.7.27 1.16 0 .54-.16 1.04-.47 1.47-.3.43-.77.77-1.36 1.01-.58.24-1.28.37-2.08.37-.96 0-1.77-.17-2.4-.5a3.1 3.1 0 0 1-1.1-.96c-.28-.4-.42-.8-.42-1.19 0-.24.1-.45.28-.62a.99.99 0 0 1 .7-.26.9.9 0 0 1 .58.2c.13.1.23.25.33.43l.06.14c.12.27.25.5.39.67.13.17.32.31.56.43.24.1.57.17.97.17.55 0 1-.12 1.34-.35.34-.22.5-.5.5-.82a.8.8 0 0 0-.26-.62c-.18-.17-.42-.3-.71-.4a12.6 12.6 0 0 0-.98-.24l-.25-.05a9.91 9.91 0 0 1-1.75-.52c-.48-.2-.86-.48-1.15-.83-.28-.35-.43-.8-.43-1.31 0-.5.15-.95.46-1.34.3-.38.73-.68 1.3-.88.55-.2 1.2-.3 1.95-.3z"></path>
                                    </svg>