<svg xmlns="http://www.w3.org/2000/svg" width="67" height="67" fill="none" viewBox="0 0 67 67">
  <path fill="#0F0060" fill-rule="evenodd" d="M22.954 39.21c-1.418 0-2.571-1.14-2.571-2.539 0-1.4 1.153-2.538 2.571-2.538 1.419 0 2.572 1.139 2.572 2.538 0 1.4-1.153 2.538-2.572 2.538Zm.432-7.522c-1.014 0-1.953.355-2.642.999l-.238.221v-5.015h-2.7v8.57c0 3.198 1.936 5.185 5.054 5.185 3.05 0 5.262-2.09 5.262-4.97 0-2.892-1.992-4.99-4.736-4.99Zm-9.893-3.795L8.256 33.98v-6.088H5.58v13.373h2.677v-6.034l5.343 6.034h3.442L11.13 34.58l5.751-6.687h-3.388Zm44.861 4.09h3.01l-4.003 4.641 4.004 4.642h-3.01l-3.459-4.009v4.01h-2.702V27.892h2.702v8.099l3.459-4.01Zm-11.227-.27c-1.62 0-2.62.763-3.098 1.297v-.98h-2.534v9.236h2.625v-5.03c0-1.257.871-2.136 1.96-2.136 1.09 0 1.96.879 1.96 2.136v5.03h2.626v-5.822c0-2.161-1.559-3.73-3.54-3.73Zm-15.178 4.971a2.538 2.538 0 0 0 2.54 2.532 2.54 2.54 0 0 0 2.54-2.532 2.538 2.538 0 0 0-2.54-2.531c-1.4 0-2.54 1.135-2.54 2.531Zm-2.68.006c0-2.883 2.161-4.976 5.14-4.976 2.999 0 5.176 2.093 5.176 4.976v4.647h-2.426v-1.32l-.151.21c-.01.013-1.053 1.421-3.003 1.421-2.745 0-4.737-2.085-4.737-4.958Z" clip-rule="evenodd"/>
</svg>
