<svg xmlns="http://www.w3.org/2000/svg" width="68" height="67" fill="none" viewBox="0 0 68 67">
  <path fill="#FFDC00" fill-rule="evenodd" d="M32.966 7.94 19.968 1 32.79 25.56 45.612 1.177 32.966 7.94Zm9.839 1.958 16.511-6.764v12.281l-9.485 4.272c5.62 4.627 9.31 11.569 9.31 19.222 0 13.882-11.945 25.273-26.524 25.273-14.755 0-26.524-11.213-26.524-25.273 0-7.831 3.689-14.773 9.66-19.578l-9.485-4.272V2.78l16.336 6.94 2.635 4.806 5.973 11.391c-6.675.89-11.77 6.408-11.77 12.993 0 7.119 6.148 12.992 13.702 12.992 7.553 0 13.7-5.695 13.7-12.992 0-6.764-5.444-12.459-12.47-12.993l5.62-11.035h.176l2.635-4.983Z" clip-rule="evenodd"/>
</svg>
