<svg xmlns="http://www.w3.org/2000/svg" width="68" height="68" fill="none" viewBox="0 0 68 68">
  <path fill="#0090D0" fill-rule="evenodd" d="M3.046 64.9h61.342V3.56H3.046V64.9Z" clip-rule="evenodd"/>
  <path fill="#0090D0" fill-rule="evenodd" d="m3.046 3.56 15.331 15.342L33.716 3.56H3.046Z" clip-rule="evenodd"/>
  <path fill="#0099D7" fill-rule="evenodd" d="M3.046 3.56v30.67l15.331-15.328L3.047 3.56Z" clip-rule="evenodd"/>
  <path fill="#0090D0" fill-rule="evenodd" d="M3.048 34.228h30.667L18.388 18.892 3.048 34.228Z" clip-rule="evenodd"/>
  <path fill="#0082C8" fill-rule="evenodd" d="m33.716 3.56-15.33 15.331 15.33 15.338V3.56Z" clip-rule="evenodd"/>
  <path fill="#0070BA" fill-rule="evenodd" d="M33.716 3.56v30.67l15.331-15.328L33.717 3.56Z" clip-rule="evenodd"/>
  <path fill="#004C97" fill-rule="evenodd" d="M33.718 34.228h30.669l-15.33-15.336-15.34 15.336Z" clip-rule="evenodd"/>
  <path fill="#0082C8" fill-rule="evenodd" d="M3.046 34.229 18.377 49.57l15.339-15.34H3.046Z" clip-rule="evenodd"/>
  <path fill="#0070BA" fill-rule="evenodd" d="m3.046 64.9 15.331-15.33-15.33-15.34V64.9Z" clip-rule="evenodd"/>
  <path fill="#0066B2" fill-rule="evenodd" d="M3.048 64.9h30.667L18.388 49.558 3.048 64.9Z" clip-rule="evenodd"/>
  <path fill="#00519B" fill-rule="evenodd" d="M18.388 49.559 33.718 64.9V34.231L18.387 49.56Z" clip-rule="evenodd"/>
  <path fill="#1B3281" fill-rule="evenodd" d="M33.716 34.229 49.047 49.57l15.338-15.34H33.716Z" clip-rule="evenodd"/>
  <path fill="#004C97" fill-rule="evenodd" d="m33.716 64.9 15.331-15.33-15.33-15.34V64.9Z" clip-rule="evenodd"/>
  <path fill="#1B3281" fill-rule="evenodd" d="M33.718 64.9h30.669l-15.33-15.342L33.718 64.9Zm15.34-15.341L64.39 64.9V34.231L49.06 49.56Z" clip-rule="evenodd"/>
  <path fill="#0066B2" fill-rule="evenodd" d="m33.716 3.56 15.331 15.342L64.385 3.56H33.716Z" clip-rule="evenodd"/>
  <path fill="#00519B" fill-rule="evenodd" d="M64.388 3.56 49.057 18.891l15.33 15.338V3.56Z" clip-rule="evenodd"/>
  <path fill="#FEFEFE" fill-rule="evenodd" d="M14.944 53.076 25.818 63.95l18.93-18.647 19.64 19.532v-22.93l-19.64-18.707-29.804 29.88Z" clip-rule="evenodd"/>
</svg>
