<svg xmlns="http://www.w3.org/2000/svg" width="67" height="67" fill="none" viewBox="0 0 67 67">
  <path fill="#D61920" fill-rule="evenodd" d="M12.92 41.012H6.93v-4.397h5.99c1.614 0 2.704.982 2.704 2.199 0 1.214-1.09 2.198-2.704 2.198Zm4.124-6.111c1.422-.59 2.599-1.914 2.599-4.114 0-3.276-2.81-5.263-6.198-5.263H2.975a.186.186 0 0 0-.186.185v2.98c0 .1.084.185.186.185h9.743c1.572 0 2.636.96 2.636 2.141 0 1.186-1.063 2.144-2.636 2.144H6.93v-2.21a.185.185 0 0 0-.186-.183H2.975a.184.184 0 0 0-.186.184v13.14c0 .103.084.188.186.188h10.317c3.856 0 6.62-1.8 6.62-5.465 0-1.803-1.064-3.295-2.868-3.913Zm43.283-6.027h1.578c.1 0 .183-.086.183-.186v-2.98c0-.1-.083-.184-.183-.184h-2.219c-2.563 0-3.92.818-4.697 2.56l-4.82 11.806c-.291.706-.713 1.04-1.543 1.04V25.708c0-.1-.084-.184-.187-.184h-3.54a.186.186 0 0 0-.187.184v18.243c0 .18.147.328.33.328h3.971c2.563 0 3.732-.819 4.508-2.559l4.756-11.657c.382-.83.933-1.19 2.05-1.19Zm-2.409 7.424 6.074 7.764c.074.097.02.217-.104.217h-4.277c-.318 0-.531-.095-.717-.343l-2.655-3.56a.072.072 0 0 1-.006-.072l1.634-3.998c.01-.027.035-.032.051-.008ZM26.56 30.766h-3.544a.184.184 0 0 0-.186.185v13.14c0 .104.081.188.186.188h3.544a.188.188 0 0 0 .188-.187V30.95a.187.187 0 0 0-.188-.185Zm11.04-5.242h3.542c.102 0 .187.084.187.185V43.95a.33.33 0 0 1-.33.328H37.03c-2.564 0-3.734-.82-4.51-2.559l-4.755-11.658c-.382-.829-.93-1.188-2.05-1.188h-2.697a.187.187 0 0 1-.188-.185v-2.98c0-.101.082-.185.188-.185h3.335c2.563 0 3.924.819 4.7 2.56l4.818 11.807c.292.706.712 1.038 1.544 1.038V25.71c0-.101.084-.185.187-.185Z" clip-rule="evenodd"/>
</svg>
