<svg xmlns="http://www.w3.org/2000/svg" width="68" height="68" fill="none" viewBox="0 0 68 68">
  <path fill="#ADCB53" fill-rule="evenodd" d="m41.955 35.166.064-.064 1.29-.602.037-.03.046.01.063-.068.045-.014-.006-.035.71-.43.084-.04v-.025l.045.01.02-.034.065-.005-.003-.023.093-.007 2.31-1.297.044.01.066-.072.044.009.042-.052.043.012.04-.057.047.01.018-.038.063-.005v-.02l.05.008.019-.035.086-.006.02-.033.087-.002v-.027l.039.013v-.021l.13-.016v-.02l.067.01v-.022h.088v-.016l.063.005v-.019l.04.01v-.02l.128.003V32.1l.045.013v-.023l.088.017v-.023l.088.02v-.021l.064.01v-.018l.102.018v-.018l.116.018v-.018l.948.14v.017l.35.083v.02l.101.02v.023l.11.018v.02l.087.015v.02l.065.01v.02l.151.05v.023l.047.004v.02l.064.01v.02l.042.013v.017l.068.012v.02l.041.011v.016l.112.045v.016l.13.063v.022l.036.004v.025l.133.062v.018l.069.035.02.04.085.038.047.068.04.007.03.045.04.011.038.068.306.291.047.01v.038l.045.01.018.064.151.15v.035l.091.077v.04l.088.076v.038l.046.029.023.061.019.01v.037l.045.027.02.087.045.026v.039l.042.051v.037l.044.033v.034l.028.033-.077-.037v-.037l-.435-.242v-.045l-.31-.133v-.021l-.09-.014v-.023l-.068-.014v-.016l-.065-.012v-.024l-.088-.019-.022-.04-.088-.018v-.02l-.132-.024v-.019l-.112-.023v-.021l-.153-.025v-.024l-.17-.03v-.025l-.05-.004v-.02l-.065-.011-.04-.069-.066-.01-.007-.023-.088-.034v-.043l-.216-.103v-.038l-.266-.11v-.04l-.111-.022v-.038l-.487-.151v-.04l-.586-.135-.05.018-.348-.067-.023.035-.202-.035-.02.035-.235-.024-.027.035-.082-.016v.02l-.043-.005v.022l-.07-.018-.196.027v.044l-.22.017v.038l-.195.026-.109.058v.04l-.063.01-.025.034-.04-.005-.046.051-.044-.005v.039l-.046-.01.009.04-.064.052-.073-.016v.04l-.04-.006-.108.139-.043-.007v.044l-.044-.009-.065.132-.044-.01-.174.269-.044-.005v.056l-.044-.007-.058.214-.046-.01-.021.139-.044.008v.082l-.042.01v.106l-.023-.005v.077h-.02l-.018.195-.043-.01v.23l-.045.006.008.633.047.025v.218l.045.033.006.141.02.002v.042l.023.004.021.206.044.003v.106l.048.028v.062l.024.003v.083l.021.003.02.084.045.008.029.145.04.03v.06l.025.005.026.486.021.004.004.162.02.004.003.104.019.003.004.123.023.001v.08l.02.005v.04l.022.005.028.128.017.004.004.08.021.004v.06l.024.003v.062l.022.003v.06l.021.004.023.124.02.008v.036l.045.034.186.415.04.009.161.329.035.01.051.048v.039l.05.028v.042l.034.03v.039l.135.125v.041l.026.006.11.16.041.006.072.116.037.005.051.07.106.123.046.01.065.091.049.009.021.044.067.03v.044l.284.191.091.14.021.003.023.106.065.053.02.082.03.006.056.088-.081.074-.064.027v.044l-.06.025v.041l-.406.262v.04l-.081.025v.015l-.046-.004-.02.035-.024-.008-.023.041-.043-.01-.041.053-.044-.008-.018.032-.068.009v.023l-.039-.01-.023.038-.063.005v.02h-.09l-.016.073-.092.003-.168.11v.037l-.065-.002v.038l-.083.043v.04l-.11.062v.036l-.089.03v.036l-.02-.005-.082.087-.044-.01v.038l-.042.012v.022l-.037-.01-.088.085-.044-.004-.087.083-.067.005-.02.04-.046-.012-.02.036-.045-.005-.014.035-.051-.013-.016.067-.044-.003-.021.035-.081.043-.065.096-.066.026v.04l-.038.011v.042l-.05.014.004.041-.045.008v.022l-.046.01v.039l-.103.06v.04l-.146.09-.024.058-.064.027v.022l-.044-.01-.147.13-.044-.003-.085.084-.044-.01-.066.065-.046-.004-.02.034-.066.006v.018l-.043-.003-.016.033-.05-.008-.015.036-.05-.009-.017.039-.032-.007v-.035l.159-.05-.006-.061.064-.044.088-.046v-.021l.044.005-.005-.058.026.002.046-.009.167-.295.049.009.104-.322.046.008.02-.158.036-.009v-.123l.023.006v-.145l.023.004-.008-.323.024.004-.074-.716-.041-.01-.028-.207-.04-.01-.032-.146-.04-.006-.044-.17-.046-.006-.044-.172-.046-.026-.023-.189-.045-.028v-.123l-.021-.002v-.039l-.021-.007-.025-.208-.046-.006-.025-.104-.019-.002v-.086l-.046-.025-.02-.129-.048-.026v-.06l-.044-.028v-.044l-.045-.026-.025-.108-.019-.003-.026-.062-.044-.01v-.058l-.043-.012-.064-.15-.043-.004v-.047l-.045-.005-.073-.157-.042-.005v-.046l-.042-.006-.067-.11-.044-.007-.004-.045-.043-.008-.067-.113-.046-.007v-.04l-.15-.088v-.043l-.044-.008v-.04l-.135-.105-.046-.01-.042-.11-.044-.005-.048-.11-.017-.005-.051-.129-.04-.009v-.059l-.045-.005v-.045l-.044-.005-.156-.254-.044-.01v-.036l-.043-.01v-.04l-.045-.01-.111-.116-.004-.045-.044-.005v-.043l-.043-.009v-.038l-.11-.062v-.04l-.084-.034v-.04l-.138-.063-.087-.1-.09-.182-.048-.007-.109-.243-.04-.007v-.037l-.046-.014-.05-.107-.043-.008-.108-.179-.044-.01-.003-.04-.043-.01v-.037l-.044-.01v-.041l-.047-.009v-.039l-.174-.135v-.039l-.092-.056v-.048l.102-.031.025-.034.04.004.023-.032.043.007.022-.037.045.01.022-.036.042.009.017-.035.088-.006.022-.033.129-.016-.004-.023.048.009v-.023l.126-.014v-.02l.064.013v-.023l.046.01v-.02l.042.008.025-.035.04.007.044-.033-.004-.036.045-.015Zm8.748 8.079-.05-.01-.08-.115-.044-.004-.203-.237-.124-.125v-.035l-.087-.076-.003-.042-.025-.007-.044-.065-.042-.011-.023-.042-.109-.04v-.02l-.085-.032v-.02l-.09-.041-.02-.04-.125-.067v-.018l-.07-.026-.023-.05-.082-.035-.028-.042-.039-.01-.024-.043-.065-.034-.04-.065-.052-.012-.014-.044-.051-.006-.086-.117-.039-.006-.178-.212-.038-.006v-.02l-.065-.053v-.04l-.174-.174-.006-.037-.046-.033-.07-.093h.007l-.007-.04.116-.12.042.009.044-.052.044.008.025-.039.063-.005v-.023l.043.01.022-.037.037.004.029-.032.036.007.024-.037.072-.007.057-.07.045.01.024-.039.044.013.126-.118.072-.01-.006-.04.132-.098.086-.044.023-.058.063-.024v-.045l.068-.028v-.04l.045-.012v-.041l.043-.012v-.04l.042-.013.022-.056.018.003.025-.076.04-.012.027-.077.065-.004.06-.07.044.01.044-.058.041.01.024-.038.04.01.088-.087.051.01.148-.132.04.007.023-.036.067-.029v-.039l.022.004.088-.085.041.01v-.043l.045-.053.08-.044v-.039l.067-.033v-.035l.07-.028v-.042l.045-.01-.005-.065.047.013-.003-.064.193-.124v-.04l.174-.049v-.04l.132-.038v-.039l.197-.085v-.038l.043.003.158-.19.038.009v-.042l.045.005-.006-.038.048.008.086-.104v-.062l.067-.03.039-.112.049.01.038-.135.045.009v-.08l.04.006v-.078l.046.004.02-.097.019.007.026-.139.021.005v-.04l.018.002v-.08l.02.003v-.037l.022.003v-.102l.044-.013v-.144l.042-.009-.003-.181.042-.01v-.349l.023.005v-.084l.02.013-.048-.277-.006-.347-.042-.02v-.184l-.044-.028-.005-.146-.044-.027v-.101l-.021-.004v-.039h-.023v-.086l-.021-.004v-.061l-.029-.007v-.034l-.015-.005v-.084l-.026-.003-.022-.103-.044-.01v-.014l.004.003.04.01.026.044.037.008.05.07.044.006.015.045.045.004.086.117.044.011.18.212.131.101.066.113.044.009.02.061.108.102v.04l.111.101v.036l.044.03v.043l.065.046v.042l.042.027.008.041.04.025.02.064.02.009 1.336 1.48.044.022v.044l.044.029.021.06.021.005.304.353.045.013.042.063.046.01.07.089.039.01.07.092.035.009.14.163.278.29.086.117.376.387.023.042.086.035.022.044.082.04.027.041.85.836.044.006.064.114.022.004v.036l.044.032v.016l.044.03v.039l.04.031.009.037.061.051.352.366.04.007.022.042.043.011.042.065.044.01.042.066.046.01.065.092.044.004.174.214.046.007v.018l.063.056v.039l.197.197.289.27v.02l.042.005v.023l.037.023.088.041.113.077.02.046.07.053.042.01.068.044.014.05.066.047.045.009.043.051.022.046.349.34.505.51.044.049.037.004.03.042 1.108 1.028v.017l.067.05.655.717.042.01.088.117.042.005.022.048.133.122.087.098.11.136.09.117.062.092.042.067.072.13.081.114.044.09.025.044.066.132v.061l.023.002.021.082.021.005v.06l.023.005v.042l.022.003v.06l.021.002.009.064.014.001.007.062.014.003.142.6v.24l.023.004-.02.513-.015-.004v.138l-.02-.004v.1h-.02v.097l-.025-.003.005.08-.02-.006v.079l-.023-.002v.062l-.022-.007-.02.135-.02-.003v.04l-.025-.003v.056h-.023l.007.037-.02-.002v.06l-.024-.005-.038.11-.027-.003v.04l-.021-.008v.044l-.021-.006v.045l-.025-.008-.035.112-.023-.002-.023.054-.044.01-.02.078-.045.01v.037l-.063.029v.044l-.062.026v.042l-.08.042v.043l-.196.116-.171.153-.04-.007-.067.065-.046-.007-.037.055-.051-.01-.04.046-.04-.005-.023.035-.062.01v.02l-.088.004-.024.033-.13.018-.02.034-.19.024v.02l-.089.003v.023l-.067-.012v.02l-.035-.008v.018l-.072-.01v.019l-.065-.01v.017l-.062-.011v.017l-.063-.01v.02l-.088-.017v.021l-.088-.017v.023l-.104-.023v.023s-.647-.085-.904-.148c-.26-.067-.919-.313-.919-.313l-.093-.03-.032-.01v-.024l-.11-.038v-.02l-.082-.032v-.023l-.07-.01V50.3l-.089-.033v-.025l-.087-.035-.022-.044-.131-.063v-.018l-.627-.396v-.022l-.086-.013v-.022l-.065-.013v-.023l-.065-.007v-.022l-.067-.03-.998-.686-.046-.003-.088-.122-.045-.005-.61-.466v-.023l-.079-.037v-.018l-.072-.01v-.025l-.125-.065v-.016l-.045-.007v-.023l-.088-.035-.027-.046-.125-.063-.028-.043-.037-.005v-.026l-.065-.025-.023-.05-.042-.002-.05-.071-.036-.009-.025-.038-.04-.01-.096-.12-.042-.004-.714-.59v-.02l-.132-.066v-.022l-.042-.006v-.02l-.044-.012v-.017l-.13-.06-.02-.048-.09-.031-.022-.05-.085-.033-.04-.074-.048-.003-.021-.04-.046-.012-.046-.068s-.737-.585-1.022-.846c-.147-.14-.475-.438-.763-.7a32.006 32.006 0 0 1-.508-.466l-.079-.075v-.044l-.11-.099-.022-.062-.042-.068-.785-.704Zm-15.67-4.713v.037l.176.118v.037l.18.113v.04l.063.016v.017l.023.046.065.07.044.01v.061l.048.007.046.111.022.003v.041l.043.03v.056l.042.01v.04l.044.008.05.111.04.009v.037l.047.012.106.183.047.004v.04l.174.134.005.042.044.009v.04l.113.06v.039l.044.01v.041l.152.09.023.044.065.016.023.04.042.009v.02l.072.034v.04l.079.017v.04l.116.062.31.378v.04l.046.01.237.265v.04l.05.006v.043l.07.01v.044l.038.008v.04l.288.196.09.076v.02l.045.008.003.018.043.01.017.04.072.013.02.048.065.01v.023l.086.037v.037l.11.065v.039l.05.007v.039l.037.008.074.075v.038l.04.009v.042l.044.005.117.122v.042l.042.005.349.313v.039l.07.01v.045l.109.056v.018l.065.019v.02l.088.033v.042l.095.016v.04l.152.05.019.042.087.02v.035l.11.022.023.048.116.016v.02l.063.015v.021l.086.016v.017l.154.034.023.04.244.05.021.046.216.035v.02l.066.01v.022l.11.02v.021l.05.01.02.045.177.048v.041l.788.23.286.052v-.021l.04.01v-.02l.423.034v-.038l.39-.029v-.038l.061.002-.017.01v.04l-.11.063-.124.092v.037l-.067.01-.144.135-.046-.01-.065.068-.042-.013-.07.07-.04-.008-.043.05-.045-.005-.02.034-.06.01v.02l-.046-.009-.02.035-.067.011v.018l-.124.014-.027.039h-.088v.019l-.038-.007v.024l-.043-.012v.023l-.13.016v.02l-.06-.015v.018l-.01.056-.046-.01-.104.102-.102-.014v.04l-.125.075-.19.164-.051-.007-.17.107-.256.12-.063.007v.021l-.044-.01-.023.038-.086.004-.016.034-.05-.004-.04.03-.043-.01v.02l-.043-.008v.022l-.042-.01v.021l-.043-.01v.022l-.043-.008v.019l-.046-.005v.014l-.13.02v.019l-.066-.011v.017l-.037-.007v.022l-.065-.015v.018l-.061.023v.021l-.065-.01v.015l-.064-.009v.018l-.3.124-.087.08-.044-.003-.087.086-.045-.013-.038.05-.04-.005-.048.05-.043-.006-.021.032-.088.006-.023.037-.064.01v.019h-.087l-.016.04-.133.012v.021l-.04-.008v.021l-.045-.01v.022l-.044-.006v.02l-.13.012v.023l-.06-.02v.024l-.043-.004v.018l-.072-.014.004.023-.043-.01v.024l-.065-.014.006.017-.065-.012v.021l-.416.164-.04-.005-.083.08-.044-.01-.044.056-.044-.01-.044.05-.044-.008-.016.039-.042-.01-.048.053-.084.002-.021.039-.085.004-.02.033-.13.016-.02.034-.065-.01-.026.037-.706.125-.086-.014v.018l-.09-.014v.02l-.087-.015v.016l-.084-.016v.02l-.106-.02v.02l-.107-.02v.02l-.174-.03v.02l-.803-.13v-.017l-.255-.052v-.019l-.176-.035-.005-.014-.124-.024v-.023l-.087-.014v-.02l-.11-.02v-.022l-.24-.083v-.02l-.066-.011v-.021l-.15-.046v-.02l-.047-.008v-.021l-.063-.013v-.021l-.043-.005v-.02l-.06-.014v-.017l-.087-.037v-.021l-.065-.011v-.019l-.134-.064v-.022l-.04-.01v-.019l-.089-.033-.02-.044-.133-.065-.022-.046-.087-.031v-.025l-.065-.03-.021-.042-.044-.009-.023-.048-.042-.005-.044-.069-.042-.005-.044-.069-.044-.007-.044-.07-.066-.031-.193-.237-.048-.005-.158-.208-.037-.01-.109-.14v-.04l-.044-.026v-.02l-.043-.029v-.039l-.065-.05V44.8l-.062-.05v-.045l-.048-.023-.021-.066-.027-.005v-.038l-.042-.03-.02-.058-.024-.008-.026-.086-.04-.03v-.036l-.047-.05v-.035l-.018-.005v-.042l-.024-.004v-.039l-.02-.003-.045-.13h-.021l-.021-.106-.022-.006v-.042h-.024v-.06l-.024-.004-.02-.085h-.024l-.045-.206-.02-.003v-.064h-.023v-.06l-.024-.009-.024-.142-.02-.004-.003-.079-.02-.007-.024-.241.044-1.68h.023v-.055l.02.002v-.059l.022.004.06-.25.029.005v-.04l.015.009v-.062l.021.004.023-.078.014.005v-.057l.028.003.023-.08.021.008v-.062l.04-.014v-.035l.041-.03v-.042l.023.002v-.04l.016.004v-.038l.046-.013.019-.075.046-.011v-.042l.04-.014.023-.07.04-.015v-.042l.062-.023v-.044l.066-.029v-.04l.105-.057v-.038l.085-.045v-.042l.047-.028.063-.01v-.038l.046-.014.037-.051.107-.041v-.036l.046-.035.04.01.066-.07.047.008.078-.084.047.008.042-.052.046.01.04-.05.046.005.02-.034.084-.004.021-.039.065-.003v-.022l.088-.004.023-.037.036.01.043-.033.051.007v-.02l.037.01v-.019l.049.006.017-.035.063.012v-.023l.088-.005v-.017l.067.01V39l.081-.005v-.021l.067.014v-.021l.043.007v-.018l.282-.007v-.022l.065.012v-.023l.066.016v-.022l.256.006.025-.032.04.009.04-.055.045.013.04-.059.045.011.043-.054.043.012.023-.037.086-.002.023-.035.038.006.027-.04.037.01.023-.035.044.01.045-.032.04.007v-.015l.046.003v-.018l.043.007.311-.08.037.022Z" clip-rule="evenodd"/>
  <path fill="#00B0A9" fill-rule="evenodd" d="m15.028 32.8.045-.09.02.002.02-.074.026.004-.005-.042.02.007v-.063l.022.004.042-.11.023.005v-.042l.023.005v-.038l.02.005-.005-.04.025.001v-.039l.027.007v-.042l.035-.032v-.04l.043-.01.018-.078.05-.01.014-.078.051-.01-.008-.037.022.001v-.04l.045-.011v-.04l.04-.011v-.04l.049-.013-.009-.041.046-.014v-.04l.066-.024v-.04l.064-.03v-.043l.11-.056v-.039l.041-.01v-.021l.039-.013v-.04l.535-.657.023.002.054-.067.02.006v-.063l.023.003-.004-.034.021.004v-.064l.027.005.038-.113h.021v-.032l.022.003v-.039l.022.004v-.04h.016v-.038l.027.004v-.04l.019.007v-.043l.02.005v-.042l.045-.03v-.042l.04-.01.023-.076.039-.01.028-.076.035-.015v-.036l.025.001v-.036l.064-.03.015-.081.072-.021-.005-.043.065-.024.111-.122v-.042l.042.01.039-.068h.02v-.037l.022.002.067-.065.043-.01v-.045l.017.004.067-.067.04.01.567-.617-.005-.036.028.005.017-.079.021.006v-.039l.023.004v-.043l.02.004v-.037l.023.004v-.043l.023.008v-.038h.02v-.044l.017.01v-.04l.026.002-.006-.039.045-.035v-.037l.042-.01.023-.078.063-.026.018-.076.044-.01v-.043l.02.004v-.039l.045-.012.02-.058.068-.027v-.037l.065-.03.017-.074.11-.061v-.04l.102-.06v-.039l.32-.363.017.007v-.038l.023.005.025-.137.023.007-.006-.044.027.003.017-.113.021.004v-.04l.023.007v-.06l.02.001.02-.073h.02v-.058l.021.007.046-.113.02.003v-.04l.02.005v-.04l.024.002v-.043l.019.01v-.041l.02.003v-.038l.022.001v-.039l.02.006v-.04l.046-.032v-.04l.04-.011.046-.115.039-.01v-.04l.064-.025.022-.078.043-.012v-.039l.065-.027v-.04l.015.002.02-.058.049-.01v-.04l.087-.041v-.041l.102-.058v-.04l.13-.077v-.04l.25-.39.029.001-.007-.039.025.008.04-.175.022.006v-.04l.022.003v-.058l.02.005.02-.075.026.001v-.061l.014.003.042-.109.024.003v-.037l.022.006V24.3h.025l-.006-.038.03.007-.01-.04.029.005-.006-.046.026.007-.007-.04.023.005v-.044l.045-.028v-.04l.045-.013.021-.074.037-.015.021-.073.046-.01v-.041l.043-.013v-.038l.043-.012v-.04l.037-.012v-.046l.051-.006-.016-.062.057-.034v-.035l.09-.043.02-.059.192-.262v-.097l.021.004v-.06l.023.005-.008-.06.027.004v-.08l.018.006v-.063l.055.01v-.058l.025.005-.005-.06h.023v-.038l.022.005.02-.114.024.003-.006-.042.025.005v-.06l.023.006.017-.078.027.008-.006-.045.022.006v-.057l.024.006.04-.111h.023v-.04l.022.002-.006-.036.027.002.038-.113.047-.014v-.06l.04-.012.022-.07.039-.013v-.044l.042-.007v-.043l.046-.012v-.04l.041-.01v-.037l.047-.016v-.038l.021.002.016-.056.05-.008v-.041l.059-.028v-.043l.107-.056v-.039l.317-.46v-.057h.021v-.058l.018.005v-.084l.026.003-.005-.035.023.005v-.061l.023.004v-.04l.018.002v-.063l.022.009v-.043l.025.007v-.061l.015.004.022-.076.022.007v-.04h.021v-.06l.044-.01v-.057l.02.003v-.04l.021.002-.003-.04.05-.011-.006-.04.043-.03v-.043l.021.004v-.04l.022.008v-.043l.044-.01.02-.076.045-.009v-.042l.039-.014v-.037l.048-.014-.006-.04.044-.011v-.04l.044-.013v-.04l.066-.03v-.034l.058-.033v-.04l.279-.388.022.01v-.06l.023.003v-.062l.016.005v-.059l.021.001v-.073l.021.001v-.042l.023.001.044-.166.02.002v-.04l.022.004-.003-.06.02.006.021-.074.022.002.023-.092.02.002.04-.113.02.002v-.04l.027.006-.003-.037.026.002-.004-.039.02.002v-.039l.046-.033v-.04l.04-.011.02-.077.042-.01.023-.075.04-.017.025-.074.063-.025-.003-.04.042-.013v-.04l.044-.01.019-.06.065-.024v-.042l.048-.01-.006-.022.043-.008v-.042l.086-.045v-.037l.572-.77v-.04l.021.006v-.04l.046-.015v-.036l.042-.034v-.04l.017.003v-.037l.045-.012.02-.078.022.005.023-.053.04-.017.023-.075.062-.026v-.039l.042-.012v-.046l.065-.023v-.04l.083-.04v-.047l.088-.042v-.035l.195-.125-.006-.04.05-.011.037-.055.046.011.174-.148.042.007.062-.067.042.009.086-.085.038.008.046-.05.045.005.026-.035.058-.007v-.023l.043.013.022-.035.046.008.021-.038.067-.01v-.02l.128-.014.017-.034.045.007.04-.035.046.009v-.018l.043.006v-.016l.047.005.02-.037.058.012v-.02l.088-.006v-.016l.065.01v-.019l.088-.005v-.017l.065.008v-.018l.043.01v-.02l.066.01v-.017l.037.007v-.024l.37-.065.038.008.023-.04.088-.002.02-.037.089-.004v-.02l.043.008v-.019l.125-.018v-.016l.065.005v-.015l.09-.005v-.018l.062.012v-.023l.047.01v-.022l.123.007.004-.02.063.01v-.022l.064.014v-.017l.065.01v-.02l.087.013v-.018l.086.015v-.016l.108.016v-.016l1.708.396v.021l.067.012v.018l.063.01v.022l.065.014v.019l.067.01v.021l.045.01v.017l.065.01v.025l.085.034v.02l.065.01v.025l.131.063v.017l.087.035.022.044.088.038.021.042.044.009.023.044.042.008.023.044.04.01.023.041.044.007.025.046.042.007.064.092.045.008.085.115.046.009v.015l.044.033v.04l.348.4.064.056v.036l.072.053v.039l.036.025.024.07h.025v.042l.04.027.028.063.015.007v.038l.05.05v.037l.023.002v.042l.021.007v.038h.02v.041l.022.009v.038l.014.003.051.128.021.007v.054l.025.008v.038l.021.006v.06l.02.003v.044h.028v.06l.016.005v.057l.026.004.024.145.02.002.225.675.016.01.03.08.019.005.023.124.023.003v.04l.021.002.07.273.015.004v.063l.03.001v.062l.02.002v.075l.022.01.044.304v1.65l-.04.272-.02-.006v.062l-.023-.003v.06l-.185 1.036-.016-.004.008.241h-.03l.006.175-.022-.004v.118l-.021-.002v.116l-.026-.001v.098l-.019-.003v.075h-.014l-.232.736-.02-.006-.022.078-.021-.005v.06l-.023-.006-.021.076-.021-.005v.04l-.023-.005.007.06-.046.014v.038l-.042.03-.236.516-.016.051-.021-.05-.065-.052-.023-.088-.065-.046v-.042l-.044-.028v-.044l-.065-.05-.05-.07-.02-.005v-.039l-.087-.075-.11-.162-.043-.007-.023-.067h-.023v-.061l-.024-.008v-.062h-.021V24l-.027-.003v-.062l-.02-.003v-.059l-.02-.001v-.064l-.023-.002-.042-.133h-.029v-.04l-.015-.006v-.038l-.029-.006v-.038l-.022-.006v-.042l-.02-.002v-.04l-.044-.048v-.042l-.042-.026-.044-.129-.07-.053v-.044l-.088-.072-.021-.065-.046-.03v-.04l-.067-.052v-.04l-.063-.05v-.041l-.157-.152-.023-.061-.042-.01v-.04l-.088-.057-.11-.142-.049-.008v-.017l-.11-.086v-.036l-.058-.037v-.016l-.07-.03-.022-.047-.132-.062-.023-.05-.065-.027v-.022l-.04-.005-.052-.051-.04-.006v-.022l-.04-.009-.028-.044-.041-.003v-.021l-.047-.01-.045-.049-.044-.008-.02-.044-.196-.099v-.02l-.044-.006v-.021l-.13-.043-.506-.236-.239-.066v-.016l-.7-.153-1.308.02-.07-.013v.02l-.125.02v.014l-.086.01-.023.03-.042-.006v.02l-.044-.008v.023l-.044-.01-.045.033-.041-.01-.024.038-.128.018-.046.049-.09.007-.013.033-.072.01v.016l-.064.012.005.038-.116.042v.018l-.037-.008-.109.103-.086.023v.044l-.065.003v.039l-.045.013v.022l-.044-.008-.108.096v.044l-.016-.003-.042.074-.046-.011-.021.055-.023-.003-.02.057-.049.013-.018.075-.06.028-.048.106-.047.018.01.041-.045.033v.04h-.02v.038l-.023-.003v.037l-.021-.007v.046l-.022-.006v.04l-.024-.006-.044.113h-.021l-.212.62-.033.395-.026-.006-.01.462h.015l.025.41.024.005.027.245.017.003.005.08.021.003v.08l.02.006.007.077.018.006.007.06.019.007v.06l.02.005v.06h.02v.063l.027.003v.062l.02.002v.062l.022.007v.057l.021.004.051.13.02.003v.04h.017l.003.042.025.007v.04l.021.002v.044l.02.004v.036l.046.051v.039l.049.03.042.126.062.052.026.086.046.03.02.063.02.004.025.065.04.009v.035l.066.055v.038l.049.03v.043l.065.052v.021l.04.004.05.05.02.063.087.077v.062l.023.006v.057l.023.007.005.056.021.008v.06l.021.003v.04l.022.004.022.125.023.005.05.129.02.003v.04l.022.005v.04l.014.001v.043l.028.006v.036l.046.053v.038l.04.025.046.132.064.055.027.08.044.029.02.066.09.074v.044l.11.1v.037l.157.152.021.061.044.011.067.153.042.189.028.003v.04l.02.006v.06l.023.001.047.127.02.007v.039l.02.005v.042l.023.005v.04l.02.003v.06l.045.03.027.082.046.028.04.129.044.027v.043l.044.028.026.085.04.026v.042l.087.072v.045l.094.073v.044l.065.053.026.04.044.01v.02l.037.03v.041l.07.028.025.067.04.007.024.046.02.002v.042l.045.03.02.12.027.008v.04l.025.004v.058l.02.004.045.13.019.006v.04l.023.004v.042l.023.002v.038l.023.002v.044l.02.002v.044l.043.047.003.04.048.03.037.129.07.05.022.064h.023v.04l.064.057v.04l.092.076v.04l.086.075v.044l.157.153.02.061.043.004v.042l.065.032v.02l.115.105v.038l.042.026v.04l.023.003v.044l.02.004v.06l.025.005.064.162h-.01l-.016.113-.021-.002v.04l-.023-.005v.06l-.023-.006v.064l-.02-.004v.039l-.019-.007v.061l-.025-.005-.017.076-.023-.007v.063l-.02-.003-.046.11-.02-.005v.044l-.016-.009v.06l-.042.016v.037l-.023-.003v.061l-.044.01v.04l-.02-.005v.038l-.04.037v.037l-.044.012-.042.11-.045.017v.037l-.06.028-.02.074-.065.031v.039l-.044.01-.023.059-.023-.007v.042l-.065.028v.04l-.104.098-.243.326-.035.063-.02-.004v.056l-.02-.007v.081l-.024-.002v.062l-.017-.007-.033.056-.021-.007v.063l-.02-.005v.058l-.024-.003v.038l-.021-.003v.062l-.022-.008v.043l-.021-.008-.056.11-.016-.002-.027.077-.015-.008v.04l-.023-.003v.063l-.021-.004-.044.014.012.004.005.04-.03-.004-.035.112-.044.01-.044.113-.046.014-.037.104-.042.02v.033l-.047.012v.044l-.04.01v.04h-.025l-.022.056-.042.01v.036l-.061.03v.043l-.041.01v.04l-.046.014.041.024-.051.009v.044l-.081.138v.04l-.148.086v.046l-.086.039-.447.575-.022-.003-.024.075-.014-.004v.043l-.026-.005v.058l-.016-.004-.046.112-.023-.001v.035l-.019-.003v.042l-.023-.007.007.04-.023-.002v.04l-.044.028v.041l-.044.014v.057l-.021-.005-.023.06-.042.007-.023.08-.037.013v.038l-.025-.004v.042l-.04.012v.039l-.065.026-.024.078-.065.026v.04l-.06.03v.04l-.041.01v.039l-.09.045v.037l-.107.062v.04l-.32.394-.025-.002v.08l-.021-.007v.043l-.023-.003-.076.165-.021-.007-.02.1-.024-.005v.038l-.016-.008v.062l-.02-.004-.047.113-.019-.005v.039l-.023-.004v.04l-.021-.001v.058l-.044.016v.054l-.038.015v.04L26 39.444v.04l-.023-.003v.042l-.02-.005v.038l-.043.034v.04l-.041.012-.02.075-.043.01-.023.08-.063.026-.025.073-.056.027-.023.058-.044.016-.024.074-.066.024v.043l-.102.06v.038l-.11.057v.044l-.358.408-.02.056-.024-.005v.083l-.02-.008-.022.076-.016-.005-.023.118-.023-.004-.02.1-.022-.008-.02.072-.024-.004v.043l-.024-.005v.061l-.02-.005-.038.114-.022-.003v.038l-.021-.001-.046.105-.044.01v.046l-.035.03v.038l-.022-.006v.044l-.022-.002v.037l-.038.014-.023.074-.043.013v.038l-.048.013v.04l-.04.009v.04l-.044.015v.038l-.042.013v.04l-.065.026.004.041-.042.012v.043l-.087.043v.04l-.109.059v.035l-.08.048v.022l-.046.01-.372.466-.02.035-.045.112-.019-.001-.017.075-.021-.003v.054l-.024-.001v.042l-.02-.005v.06l-.025-.002-.074.104-.021-.008v.044l-.019-.005v.058l-.041.014v.04l-.046.03v.041l-.02-.002v.035l-.022-.003v.039l-.042.035v.039l-.04.011-.025.075-.04.014v.039l-.043.012v.038l-.044.011-.02.08-.07.028-.014.073-.065.029-.11.12v.04l-.036-.01-.045.073-.021-.003v.035l-.043.014v.02l-.046.012v.044l-.23.154v.036l-.045.012-.104.1-.044-.005-.028.032-.682.634-.02-.008.007.04-.023-.003v.038l-.042.035v.04l-.046.01-.023.076-.04.013-.025.075-.063.027-.016.075-.065.03-.022.076-.06.025v.04l-.066.031v.038l-.089.042-.015.058-.025-.004v.04l-.042-.011-.43.403-.043-.01-.021.032-.17.09v.04l-.02-.005-.088.044v.021l-.037-.008v.037l-.092.026v.021l-.04-.01-.021.035-.024-.002-.022.037-.43.417-.037.013-.024.075-.04.008v.045l-.047.01v.04l-.041.012v.038l-.04.016v.035l-.044.014v.04l-.065.025v.044l-.042.011v.039l-.038.008v.022l-.044.015v.037l-.086.046v.04l-.148.09v.039l-.152.093-.023.055-.037-.005-.021.054-.067.01-.195.12-.557.551-.08.108v.038l-.046.012-.019.077-.044.012.004.04-.045.012-.04.053v.037l-.046.012-.032.004-.043.009v.038l-.044.014v.04l-.067.03-.104.12v.038l-.04-.011-.025.058-.064.027v.042l-.109.06-.405.302v.037l-.036.032-.05-.007-.039.051-.218.1.007.037-.065.01-.132.055-.044.051-.042-.007-.064.029-.022.036-.013.028-.016.037-.15.034v.04l-.083.004v.02l-.045-.01-.02.036-.048-.01v.024l-.04-.013-.045.014-1.307.852-.037-.009-.072.07-.037-.008v.016l-.065.033-.023.034-.046-.01-.014.041-.05-.014-.044.053-.041-.007-.041.051-.092.004-.037.053-.043-.006-.018.032-.092.005-.023.035-.08.006-.022.033-.045-.007-.043.037-.041-.013v.02l-.045-.007-.021.037-.09.003.007.02-.044-.007v.015l-.13.02v.024l-.065-.02v.024l-.044-.004v.015l-.127.016v.02l-.128-.006v.02l-.048-.008v.023l-.194.004v.015l-.042-.005v.02l-.082-.015v.016l-.065-.01v.023l-.066-.015v.023l-.066-.01v.015l-.081-.014-.365.03-.216-.019v.019l-1.297-.181v-.023l-.46-.102-.867-.319v-.022l-.281-.11v-.019l-.04-.009v-.023l-.064-.008v-.021l-.134-.044v-.02l-.046-.007v-.017l-.065-.018V51.5l-.083-.038v-.017l-.042-.01v-.02l-.067-.01v-.018l-.087-.04v-.02l-.041-.007v-.016l-.069-.016-.02-.044-.05-.005v-.023l-.037-.007v-.021l-.046-.005v-.023l-.042-.009-.044-.044-.042-.01-.021-.043-.132-.067-.024-.042-.086-.033-.042-.069-.044-.009-.028-.043-.039-.01-.005-.021-.06-.03-.02-.045-.045-.007-.042-.067-.045-.01-.02-.041-.047-.01-.043-.066-.042-.007-.088-.118-.042-.005-.112-.141-.043-.009-.282-.329-.174-.174v-.04l-.156-.15v-.037l-.084-.078v-.037l-.086-.08-.007-.036-.044-.03v-.038l-.063-.052v-.038l-.048-.029-.02-.063-.02-.005v-.04l-.046-.029v-.036l-.042-.036v-.035l-.039-.03-.047-.128-.046-.025-.042-.127-.046-.03-.025-.08-.02-.006v-.04l-.022-.005v-.04l-.024-.003v-.04l-.016-.004-.007-.042-.02-.005v-.056l-.045-.03v-.055l-.021-.009-.022-.08-.021-.003v-.063H3.99l-.02-.086-.022-.005-.027-.122-.024-.007v-.039l-.021-.003v-.08l-.021-.006v-.037l-.018-.004v-.077l-.026-.007v-.062l-.021-.004v-.061l-.022-.002-.028-.143-.014-.003-.026-.183-.025-.003v-.081l-.016-.004v-.084h-.026v-.116l-.023-.008-.023-.283-.023-.005-.054-.764.023.005.031-.73.023.005v-.121l.023.005v-.12l.023.006.014-.178.023.006-.005-.099.024.004-.003-.078h.024l.021-.136.02.01v-.063l.02.002v-.061l.024.007v-.08h.02l-.004-.038.026.004.039-.173.02.003.025-.073.02.006.018-.12.026.01.044-.115.023.007v-.042l.014.005.02-.094.045-.015.02-.091.049-.016-.007-.04.044-.029v-.045l.019.007v-.04l.023.005v-.041l.039-.008.05-.119.015.005.02-.054.045-.009v-.042l.045-.011v-.038l.065-.03.021-.08.066-.019v-.044l.06-.028v-.04l.103-.058v-.041l.108-.061v-.037l.082-.045v-.044l.138-.05v-.041l.146-.09.023-.037.042.006.046-.03-.006-.04.215-.105v-.035l.171-.069.02-.035.045.007.044-.051.042.012.044-.056.044.007.018-.033.063-.01v-.018l.044.008.023-.039.042.013.023-.037.044.007.553-.376.32-.335h.026l.146-.148.021.002v-.039l.085-.063.064-.007.153-.13.62-.446v-.037l.036-.05.048-.032v-.042l.02.001v-.038l.043-.011v-.037l.044-.037-.005-.037.042-.01v-.043l.045-.01v-.04l.043-.052.044-.014.107-.116.125-.137v-.039l.045.005.115-.056.016.002v-.037l.083-.048v-.019l.042-.01v-.038l.132-.08.25-.266.042.002.134-.115.042.01.037-.114.044.01.088-.085.044.009.02-.036.045.004.04-.051.182-.125.04-.03.027-.014.174-.185.015-.077.021.003.024-.054.042-.011v-.04l.04-.011v-.04l.094-.048.015-.075.041-.011.023-.053.11-.062v-.038l.105-.06v-.04l.21-.14.022-.054.818-.843.045-.01.042-.111.046-.013.04-.116.017.005.023-.056.044-.01.02-.077.065-.027.02-.075.062-.029v-.04l.066-.025V35.7l.043-.011v-.04l.11-.059-.006-.038.11-.062v-.037l.925-1.313.027-.042.044-.008.023-.084.043-.004.022-.081.043-.01v-.041l.044-.013-.005-.04.042-.009v-.042l.044-.01v-.038l.062-.032v-.035l.067-.034-.004-.036.111-.057v-.046l.106-.054v-.04l.09-.044-.006-.042.048-.032.04.01" clip-rule="evenodd"/>
  <path fill="#B9C125" fill-rule="evenodd" d="m30.867 32.344.064-.229.039.01.067-.266.04-.02.021-.05.023.002.023-.055.042.003.089-.141.044.01.08-.168.044.009.086-.187.044.01.088-.147v-.061l.044-.008-.005-.06.04-.013.024-.1.023.01v-.043l.043-.012.022-.118.043.009.021-.135.04-.014.023-.158.042-.011.02-.159.047-.01v-.101l.015.005v-.078l.05-.016.015-.238.044-.012-.006-.16.02.003v-.06l.025.005.021-.095.021.004.044-.014.021-.095.064-.007-.004-.058.044.003.026-.097.067-.006-.007-.064.044.012.044-.132.043.008.026-.117.04.009.15-.336.04.008.023-.115.043.006.023-.135.04.01.021-.179.04.01.066-.272.022.003.021-.199.04-.007.017-.277.048-.013v-.08h.023l.06-.127.043.008.063-.047.111-.222.037.008.089-.19.043.01.592-1.674.023.002.017-.042h.02v.042l.024.002v.044l.021.001v.04l.02.003v.04l.024.005v.04l.021.004v.042l.022.004v.039l.021.002.045.126.024.007.395.686v.046l.086.074v.039l.065.05v.04l.066.053v.044l.044.024v.04l.046.029.02.065h.022v.042l.05.044v.04l.019.004v.046l.045.025.023.084.016.005.047.129.025.003v.062h.02l.02.082.023.006.377.525v.04l.106.1v.039l.089.077v.04l.066.05v.039l.045.03v.042l.064.051v.042l.044.024.02.087.046.026.043.127.045.032.02.079.021.006.028.084.02.002v.06h.024l.023.089.02.004.02.103.025.002.37.528v.041l.109.1.003.036.065.055v.04l.06.052v.04l.046.025.028.065.021.005v.037l.044.028.021.086.037.025.05.133h.02v.038l.023.006v.041h.027v.045l.019.004.04.126.025.003v.06l.021.006v.038l.02.003.007.06.02.002v.044l.024.006v.055l.02.006v.056l.024.008v.06l.02.003.131.202.11.16.02.006.023.063.066.053v.035l.049.034v.037l.06.052v.037l.044.03.024.065h.02l.026.086.044.034v.035l.044.05v.04l.023.002v.04l.014.004.005.042.044.025v.06l.022.002v.041l.022.007.021.081.022.005v.06l.023.002v.041l.02.003.027.106h.023v.061l.022.006.26.466.086.072v.045l.07.05v.04l.042.027v.039l.152.25.043.026v.042l.05.05v.035l.021.007v.038l.023.004v.044h.02v.037l.02.004.046.128.023.009.37.524.043.07.022.002v.039l.094.072v.046l.059.051v.039l.07.053v.037l.042.033v.037l.046.026.023.065.021.004.02.086.045.027.02.084.11.216h.032l-.005.021-.066.027v.019l-.036-.003v.02l-.051-.011-.037.054-.027-.007v.044l-.015-.003-.03.031-.038-.005-.022.056-.066.05-.026-.005v.022l-.039-.01v.019l-.065.031v.037l-.04.015v.04l-.09.044-.11.081v.04l-.022-.003v.039l-.063.032v.016l-.046-.006-.021.038-.087.004-.218.06-.066.046v.02l-.041-.008v.02l-.044-.01-.044.053-.042-.005-.025.034-.045-.004-.129.111-.04-.003-.067.069-.067.006-.023.056-.065.01v.038l-.065.05-.016-.006v.021l-.07.01-.016.03-.07-.009-.018.042-.044-.012v.024l-.048-.01v.017l-.088-.014v.017l-.132.018v.023l-.065-.015.004.025-.041-.01-.026.035-.088.005-.229.15-.3.142-.494.245-.067.044-.26.237-.062.046-.197.025-.042.052-.2.024-.018.038h-.09l-.04.056-.044-.006-.021.033-.096.007-.038.051-.087.044-.043-.009v.04l-.041-.008-.046.056-.05-.01.008.02-.046-.01v.02l-.047.017.005.035-.044.016v.018l-.086.006-.021.03-.45.04-.252-.32-.065-.05-.024-.06-.09-.08v-.036l-.063-.058v-.032l-.072-.056v-.041l-.042-.027v-.043l-.046-.024-.021-.082-.042-.033-.023-.08-.02-.003-.023-.084-.02-.01v-.036l-.025-.006-.037-.045-.016-.002-.2-.27-.161-.192v-.027l-.091-.072v-.035l-.213-.224v-.039l-.053-.072v-.04l-.044-.027v-.038l-.051-.032v-.033l-.042-.034v-.037l-.042-.027v-.04l-.044-.03v-.042l-.023-.002-.023-.084-.042-.027-.025-.086h-.02l-.082-.133-.023-.006v-.061l-.014-.002-.026-.086-.025-.004-.412-.574v-.04l-.11-.095v-.042l-.064-.053v-.04l-.067-.05v-.04l-.042-.025v-.046l-.044-.025-.028-.065-.016-.005-.05-.13-.04-.025-.438-.774-.027-.069-.174-.167v-.04l-.087-.076v-.039l-.089-.075v-.044l-.042-.028-.023-.066h-.023v-.038l-.04-.03v-.039l-.046-.028v-.042l-.042-.03v-.034l-.111-.16v-.014l.012.004-.003-.103Z" clip-rule="evenodd"/>
  <path fill="#008D93" fill-rule="evenodd" d="M30.755 32.265v-.06l-.021-.002v-.045l-.023-.004v-.038l-.042-.026v-.04l-.115-.105v-.02l-.065-.031v-.042l-.044-.003-.019-.063-.156-.152v-.044l-.086-.074v-.04l-.092-.076v-.04l-.066-.057v-.04h-.022l-.021-.066-.07-.049-.038-.128-.047-.03-.004-.04-.042-.048v-.044l-.021-.003v-.043l-.023-.002v-.039l-.023-.001v-.042l-.023-.004v-.04l-.02-.006-.045-.13-.02-.003v-.06l-.024-.002v-.04l-.026-.01-.245-.34v-.042l-.037-.03v-.02l-.043-.01-.027-.04-.065-.053v-.044l-.094-.074v-.043l-.087-.073v-.042l-.04-.027-.025-.084-.045-.028v-.042l-.044-.028-.04-.129-.046-.028-.027-.083-.045-.03v-.06l-.02-.003v-.038l-.022-.006v-.042l-.021-.005v-.039l-.02-.008-.048-.126-.022-.002v-.059l-.02-.005v-.041l-.028-.003-.33-.566v-.037l-.111-.1v-.044l-.09-.074-.02-.067-.044-.028-.026-.08-.065-.055-.046-.132-.04-.025v-.038l-.046-.053v-.036l-.028-.006v-.043l-.014-.001v-.04l-.021-.005v-.04l-.021-.003-.05-.13-.023-.005-.023-.124-.021-.004-.02-.044-.022-.067-.137-.265-.07-.113-.041-.004v-.02l-.065-.053v-.043l-.05-.03v-.039l-.065-.054v-.035l-.04-.009-.025-.066-.021-.003-.02-.063-.045-.03-.026-.086-.062-.051-.043-.127-.048-.03V25.7l-.046-.05v-.037l-.02-.004v-.044l-.02-.002v-.04l-.026-.008-.003-.041h-.017v-.04l-.02-.003-.05-.13-.022-.003v-.059l-.023-.006v-.062l-.02-.002v-.062l-.026-.003v-.064h-.019v-.059l-.02-.006v-.059l-.02-.008-.007-.06-.018-.004-.007-.078-.02-.007v-.08l-.02-.003-.006-.079-.017-.003-.027-.245-.025-.005-.024-.41h-.016l.01-.461.027.005.034-.394.21-.622h.022l.044-.112.025.005v-.038l.02.005v-.046l.022.007v-.037l.023.003v-.038h.02v-.04l.044-.032-.008-.043.046-.017.049-.106.06-.028.017-.076.048-.012.021-.056.023.002.021-.055.046.01.042-.073.016.003v-.044l.108-.097.045.01v-.024l.044-.012v-.039l.065-.003v-.044l.087-.023.108-.102.037.007V21.3l.116-.043-.005-.039.064-.01v-.016l.072-.01.014-.034.09-.007.045-.05.129-.017.023-.038.042.01.044-.032.044.009V21l.044.007v-.02l.042.008.023-.032.086-.009v-.014l.125-.021V20.9l.07.014 1.308-.021.7.153v.015l.24.067.505.236.13.042v.021l.044.008v.02l.196.098.02.044.044.008.045.05.047.009v.02l.04.004.029.044.04.008v.022l.04.007.051.051.041.006v.02l.065.029.023.049.132.061.021.048.07.03v.016l.059.037v.037l.11.084v.018l.05.008.109.142.088.057v.04l.042.01.023.061.157.152v.04l.063.051v.04l.067.052v.04l.046.03.021.065.088.072v.044l.07.054.044.127.042.027v.042l.044.048v.04l.02.002v.042l.022.006v.038l.029.006v.038l.016.005v.04h.028l.065.137.398.697v.038l.02.005.05.069.065.051v.044l.044.028v.042l.066.046.022.088.065.051.021.051v.007l.023.028v.036l-.017.042-.023-.002-.592 1.675-.043-.01-.088.19-.038-.009-.11.222-.254.536-.04.008-.021.198-.024-.003-.064.273-.041-.011-.021.18-.04-.011-.023.135-.042-.006-.024.115-.04-.008-.15.336-.04-.009-.026.117-.042-.007-.045.131-.037.052-.093.103-.04.055-.21.419-.06.25-.049.015v.08l-.016-.006v.1l-.045.011-.021.159-.043.012-.023.157-.038.013-.022.136-.043-.009-.022.118-.043.012v.043l-.023-.009-.023.098-.04.015.005.06-.045.006v.062l-.088.146-.044-.009-.086.187-.044-.009-.08.167-.349.517-.102.22.003.103-.012-.004v-.007l-.016-.003-.063-.162-.025-.006Z" clip-rule="evenodd"/>
  <path fill="#5FAD4D" fill-rule="evenodd" d="m48.228 40.913-.02-.082-.066-.053-.023-.106-.021-.003-.091-.14-.284-.191v-.044l-.067-.03-.02-.045-.05-.008-.066-.092-.045-.008-.105-.123-.051-.07-.037-.006-.072-.116-.041-.006-.111-.16-.026-.006v-.041l-.134-.125v-.039l-.035-.03v-.042l-.05-.028v-.039l-.086-.038-.16-.35-.04-.008-.187-.415-.046-.034V38.4l-.02-.008-.022-.124-.021-.004v-.06l-.021-.003v-.062l-.025-.004v-.06l-.02-.003-.005-.08-.017-.004-.029-.128-.02-.005v-.04l-.021-.005v-.08l-.023-.001-.004-.123-.02-.003-.003-.104-.019-.004-.004-.162-.02-.004-.323-1.106-.02-.206-.024-.004v-.042l-.02-.002-.007-.14-.043-.034v-.218l-.048-.025-.008-.634.045-.005v-.23l.043.01.018-.195h.02v-.077l.023.005v-.106l.042-.01v-.082l.044-.008.021-.14.046.011.058-.214.044.007v-.056l.044.005.174-.27.044.01.065-.131.044.009v-.044l.043.007.107-.14.04.008v-.04l.074.015.063-.051-.008-.04.046.009v-.039l.044.005.045-.05.041.004.025-.033.063-.01v-.041l.11-.058.194-.026v-.038l.22-.017v-.044l.196-.027.07.018v-.021l.042.003v-.019l.083.016.026-.035.236.024.02-.035.202.035.023-.035.348.067.05-.018.586.136v.039l.487.15v.04l.111.02v.041l.357.11.863.464.146.083v.019l.087.017.022.041.088.019v.024l.065.012v.016l.069.014v.023l.089.014v.02l.31.134v.045l.435.242v.037l.077.037.083.1v.014l.044.012.021.103.026.002v.084l.016.005v.034l.028.007v.062l.022.003v.086h.022v.039l.021.004v.101l.044.027.006.146.044.028v.185l.042.019.005.347.05.277-.022-.013v.085l-.023-.006v.349l-.042.01.004.181-.043.01v.143l-.044.013v.102l-.02-.003v.036l-.022-.001v.08l-.017-.003v.04l-.022-.005-.026.14-.02-.008-.019.097-.045-.004v.078l-.04-.005v.079l-.045-.009-.038.136-.05-.011-.038.113-.067.03v.06l-.086.105-.048-.007.005.036-.044-.004v.042l-.038-.009-.159.19-.042-.003v.038l-.197.085v.039l-.132.038v.04l-.364.277-.048-.013.005.064-.045.01v.043l-.07.028v.035l-.066.033v.04l-.08.044-.045.052v.043l-.042-.01-.088.085-.021-.004v.04l-.067.028-.023.036-.04-.007-.697.514-.018-.003-.023.056-.042.014v.039l-.042.012v.04l-.046.013v.04l-.067.029v.044l-.064.024-.023.058-.085.044-.132.098.005.04-.072.01-.126.118-.043-.012-.025.038-.044-.01-.058.07-.072.007-.023.037-.037-.007-.028.032-.037-.004-.023.037-.042-.01v.023l-.064.005-.024.039-.044-.008-.044.051-.042-.008-.117.12.008.04h-.008l-.014-.02v-.017l-.032.004-.056-.088-.028-.006Z" clip-rule="evenodd"/>
  <path fill="#669D25" fill-rule="evenodd" d="m35.47 38.432.086-.007v-.018l.044-.016-.005-.035.047-.017v-.02l.046.01-.007-.02.05.01.045-.056.041.009v-.041l.044.01.086-.045.039-.051.095-.007.02-.033.045.006.04-.056h.09l.018-.038.2-.023.042-.053.198-.025.061-.045.26-.238.068-.044.39-.232.07.012v-.036l.3-.147.262-.134.088-.005.026-.035.04.01-.003-.025.065.015v-.023l.133-.018v-.017l.088.014v-.017l.047.01v-.023l.044.01.017-.04.071.008.016-.03.07-.01v-.02l.016.006.065-.05v-.04l.065-.008.023-.057.067-.006.067-.07.04.004.129-.11.045.003.025-.034.042.005.044-.052.044.009v-.02l.041.009v-.021l.066-.046.219-.06.348-.24.09-.045v-.04l.04-.014v-.037l.066-.032v-.02l.038.011v-.023l.026.006.066-.05.023-.056.037.006.03-.032.016.003v-.044l.026.008.037-.055.051.012v-.02l.037.002v-.019l.065-.027.005-.02h.018v.047l.091.056v.04l.175.135v.038l.047.009v.04l.044.011v.037l.043.01.003.04.044.01.107.18.044.006.05.108.045.014v.037l.04.007.157.25.315.345v.04l.085.034v.04l.11.062v.038l.043.01v.042l.044.005.004.046.11.114.046.012v.039l.043.01v.036l.043.01.157.254.044.005v.046l.044.005v.058l.04.01.578.652v.04l.045.008.067.112.044.009.004.043.044.008.067.11.042.006v.046l.042.005.073.157.045.005v.047l.042.003.065.15.043.013v.058l.044.01.026.062.019.004.025.107.044.026v.044l.044.028v.06l.049.026.02.13.046.024v.086l.019.002.024.103.046.008.025.207.021.008v.038l.021.002v.123l.046.028.113.387.045.006.044.17.04.005.032.147.04.01.029.206.04.01.074.717-.023-.003.008.322-.024-.004v.144l-.022-.005v.123l-.037.009-.02.158-.045-.009-.105.322-.049-.008-.167.295-.045.009-.027-.002.005.059-.043-.006v.021l-.088.046-.064.044.005.062-.158.049v.035l-.01-.003-.008.01h-.003l-.04.02h-.016l-.035.028-.046-.004v.016l-.044-.006v.022l-.044-.01-.022.04-.13.014-.022.035-.04-.009-.019.037-.114.064-.062-.002v.038l-.39.029v.038l-.422-.035v.021l-.04-.01v.02l-.286-.05-.789-.23v-.041l-.176-.049-.02-.044-.05-.01v-.022l-.111-.02v-.022l-.065-.011v-.02l-.216-.034-.021-.046-.245-.05-.023-.04-.153-.033v-.018l-.086-.016v-.02l-.064-.015v-.021l-.116-.016-.023-.048-.11-.022v-.036l-.087-.019-.02-.042-.15-.05v-.04l-.096-.016v-.042l-.087-.033v-.02l-.066-.02v-.017l-.109-.056v-.044l-.07-.011v-.039l-.349-.313-.042-.005v-.042l-.116-.121-.044-.006v-.042l-.04-.009v-.038l-.423-.34-.091-.062-.018-.039-.042-.01-.004-.018-.045-.008v-.02l-.09-.075-.287-.198v-.039l-.039-.008v-.044l-.07-.01v-.043l-.05-.005v-.04l-.237-.266-.046-.01v-.04l-.426-.44v-.04l-.079-.018v-.039l-.072-.035v-.02l-.043-.008-.022-.04-.065-.016-.023-.044-.152-.09v-.04l-.044-.01v-.04l-.112-.06v-.04l-.044-.009-.005-.042-.175-.134v-.04l-.047-.004-.105-.183-.047-.012v-.037l-.041-.009-.05-.11-.044-.01v-.038l-.042-.01v-.057l-.042-.03v-.04l-.023-.004-.046-.11-.048-.008v-.061l-.044-.01-.064-.07-.024-.046v-.017l-.063-.015v-.041l-.18-.113v-.037l-.176-.118v-.037l-.036-.022h.012L35 38.502l.45-.04.02-.03Z" clip-rule="evenodd"/>
</svg>
