<svg xmlns="http://www.w3.org/2000/svg" width="68" height="68" fill="none" viewBox="0 0 68 68">
  <path fill="#FFE400" fill-rule="evenodd" d="M61.678 53.99a7.968 7.968 0 0 1-7.968 7.97H13.861a7.97 7.97 0 0 1-7.969-7.97V14.141a7.97 7.97 0 0 1 7.969-7.968H53.71a7.967 7.967 0 0 1 7.968 7.968V53.99Z" clip-rule="evenodd"/>
  <path fill="#1E1719" fill-rule="evenodd" d="M34.404 41.139h-2.606V26.777h2.577s-.01-.007 0-.007v.007h.03v14.362Zm11.1-1.083c-.302-2.177-1.307-4.014-2.987-5.46-.249-.214-.509-.414-.801-.652.242-.181.445-.321.634-.479a9.035 9.035 0 0 0 2.66-3.676c.549-1.383.686-2.818.49-4.263-.24-1.773-.99-3.342-2.212-4.67-.882-.958-1.91-1.714-3.115-2.205-1.16-.473-2.35-.687-3.633-.687l-13.945.002c-.097 0-.194-.004-.29.006-.342.04-.543.256-.558.6-.005.096 0 .192 0 .289v30.091c0 .152-.009.304.002.455.02.264.201.46.463.503.094.016.193.011.29.011h14.441a8.192 8.192 0 0 0 4.147-1.106c1.831-1.052 3.14-2.56 3.92-4.536a8.267 8.267 0 0 0 .493-4.223Z" clip-rule="evenodd"/>
</svg>
