<svg xmlns="http://www.w3.org/2000/svg" width="68" height="68" fill="none" viewBox="0 0 68 68">
  <path fill="#FEFEFE" fill-rule="evenodd" d="M17.913 3.996a6.842 6.842 0 0 0-3.46 3.992L3.404 41.193a6.85 6.85 0 0 0 .382 5.28 6.895 6.895 0 0 0 3.989 3.454L44.007 62.09a6.868 6.868 0 0 0 5.28-.377c1.65-.833 2.882-2.243 3.456-3.998L63.796 24.52c1.21-3.616-.757-7.54-4.373-8.744l-36.23-12.16a6.855 6.855 0 0 0-5.28.379Z" clip-rule="evenodd"/>
  <path fill="#198FCA" fill-rule="evenodd" d="M18.592 42.532h2.497V25.284h-2.497v17.248Zm17.032-6.646c-1.968 2.195-4.422 3.967-7.266 5.066l-1.635.633V26.201l1.615.625c2.848 1.088 5.308 2.86 7.286 5.046a16.581 16.581 0 0 0 2.461-7.753c.448-7.375-4.172-14.142-10.517-16.498l-5.234-1.742c-2.362-.787-4.877.516-5.656 2.871L5.598 41.974c-.787 2.365.538 4.93 2.903 5.708l25.145 8.395a16.542 16.542 0 0 0 4.47-10.367 16.524 16.524 0 0 0-2.492-9.824Z" clip-rule="evenodd"/>
  <path fill="#E95705" fill-rule="evenodd" d="M34.173 33.879a16.777 16.777 0 0 0-5.06-4.042v8.107a16.686 16.686 0 0 0 5.06-4.065Z" clip-rule="evenodd"/>
  <path fill="#015198" fill-rule="evenodd" d="m52.506 42.477-3.117.01-6.413-8.627 6.514-8.623 3.144-.012-6.529 8.648 6.4 8.605Zm6.112-24.483-23.075-7.712c3.1 3.393 4.996 7.9 5.005 12.837.005 3.903-1.212 7.636-3.33 10.76 2.126 3.115 3.35 6.845 3.36 10.747a19.055 19.055 0 0 1-4.462 12.281l8.666 2.893c2.37.788 4.871-.515 5.66-2.878l11.085-33.22c.785-2.36-.542-4.924-2.909-5.708Z" clip-rule="evenodd"/>
</svg>
